<?xml version="1.0" encoding="utf-8" standalone="no"?>
<!DOCTYPE svg PUBLIC "-//W3C//DTD SVG 1.1//EN"
  "http://www.w3.org/Graphics/SVG/1.1/DTD/svg11.dtd">
<!-- Created with matplotlib (https://matplotlib.org/) -->
<svg height="432pt" version="1.1" viewBox="0 0 504 432" width="504pt" xmlns="http://www.w3.org/2000/svg" xmlns:xlink="http://www.w3.org/1999/xlink">
 <defs>
  <style type="text/css">
*{stroke-linecap:butt;stroke-linejoin:round;white-space:pre;}
  </style>
 </defs>
 <g id="figure_1">
  <g id="patch_1">
   <path d="M 0 432 
L 504 432 
L 504 0 
L 0 0 
z
" style="fill:#ffffff;"/>
  </g>
  <g id="axes_1">
   <g id="patch_2">
    <path d="M 143.3 386.4 
L 493.2 386.4 
L 493.2 26.8 
L 143.3 26.8 
z
" style="fill:#ffffff;"/>
   </g>
   <g id="patch_3">
    <path clip-path="url(#p5247e0b746)" d="M -118644.308082 379.44 
L -118644.308082 379.44 
L -118644.308082 370.16 
L -118644.308082 370.16 
z
" style="fill:#00549f;"/>
   </g>
   <g id="patch_4">
    <path clip-path="url(#p5247e0b746)" d="M -118644.308082 367.84 
L 159.204545 367.84 
L 159.204545 358.56 
L -118644.308082 358.56 
z
" style="fill:#00549f;"/>
   </g>
   <g id="patch_5">
    <path clip-path="url(#p5247e0b746)" d="M -118644.308082 356.24 
L 167.74347 356.24 
L 167.74347 346.96 
L -118644.308082 346.96 
z
" style="fill:#00549f;"/>
   </g>
   <g id="patch_6">
    <path clip-path="url(#p5247e0b746)" d="M -118644.308082 344.64 
L 251.486893 344.64 
L 251.486893 335.36 
L -118644.308082 335.36 
z
" style="fill:#00549f;"/>
   </g>
   <g id="patch_7">
    <path clip-path="url(#p5247e0b746)" d="M -118644.308082 333.04 
L 254.093498 333.04 
L 254.093498 323.76 
L -118644.308082 323.76 
z
" style="fill:#00549f;"/>
   </g>
   <g id="patch_8">
    <path clip-path="url(#p5247e0b746)" d="M -118644.308082 321.44 
L 277.03078 321.44 
L 277.03078 312.16 
L -118644.308082 312.16 
z
" style="fill:#00549f;"/>
   </g>
   <g id="patch_9">
    <path clip-path="url(#p5247e0b746)" d="M -118644.308082 309.84 
L 280.908794 309.84 
L 280.908794 300.56 
L -118644.308082 300.56 
z
" style="fill:#00549f;"/>
   </g>
   <g id="patch_10">
    <path clip-path="url(#p5247e0b746)" d="M -118644.308082 298.24 
L 281.775749 298.24 
L 281.775749 288.96 
L -118644.308082 288.96 
z
" style="fill:#00549f;"/>
   </g>
   <g id="patch_11">
    <path clip-path="url(#p5247e0b746)" d="M -118644.308082 286.64 
L 293.781734 286.64 
L 293.781734 277.36 
L -118644.308082 277.36 
z
" style="fill:#00549f;"/>
   </g>
   <g id="patch_12">
    <path clip-path="url(#p5247e0b746)" d="M -118644.308082 275.04 
L 306.787238 275.04 
L 306.787238 265.76 
L -118644.308082 265.76 
z
" style="fill:#00549f;"/>
   </g>
   <g id="patch_13">
    <path clip-path="url(#p5247e0b746)" d="M -118644.308082 263.44 
L 311.779067 263.44 
L 311.779067 254.16 
L -118644.308082 254.16 
z
" style="fill:#00549f;"/>
   </g>
   <g id="patch_14">
    <path clip-path="url(#p5247e0b746)" d="M -118644.308082 251.84 
L 322.355839 251.84 
L 322.355839 242.56 
L -118644.308082 242.56 
z
" style="fill:#00549f;"/>
   </g>
   <g id="patch_15">
    <path clip-path="url(#p5247e0b746)" d="M -118644.308082 240.24 
L 330.218955 240.24 
L 330.218955 230.96 
L -118644.308082 230.96 
z
" style="fill:#00549f;"/>
   </g>
   <g id="patch_16">
    <path clip-path="url(#p5247e0b746)" d="M -118644.308082 228.64 
L 333.670541 228.64 
L 333.670541 219.36 
L -118644.308082 219.36 
z
" style="fill:#00549f;"/>
   </g>
   <g id="patch_17">
    <path clip-path="url(#p5247e0b746)" d="M -118644.308082 217.04 
L 337.225836 217.04 
L 337.225836 207.76 
L -118644.308082 207.76 
z
" style="fill:#00549f;"/>
   </g>
   <g id="patch_18">
    <path clip-path="url(#p5247e0b746)" d="M -118644.308082 205.44 
L 337.438442 205.44 
L 337.438442 196.16 
L -118644.308082 196.16 
z
" style="fill:#00549f;"/>
   </g>
   <g id="patch_19">
    <path clip-path="url(#p5247e0b746)" d="M -118644.308082 193.84 
L 343.604804 193.84 
L 343.604804 184.56 
L -118644.308082 184.56 
z
" style="fill:#00549f;"/>
   </g>
   <g id="patch_20">
    <path clip-path="url(#p5247e0b746)" d="M -118644.308082 182.24 
L 355.055167 182.24 
L 355.055167 172.96 
L -118644.308082 172.96 
z
" style="fill:#00549f;"/>
   </g>
   <g id="patch_21">
    <path clip-path="url(#p5247e0b746)" d="M -118644.308082 170.64 
L 355.055167 170.64 
L 355.055167 161.36 
L -118644.308082 161.36 
z
" style="fill:#00549f;"/>
   </g>
   <g id="patch_22">
    <path clip-path="url(#p5247e0b746)" d="M -118644.308082 159.04 
L 362.983741 159.04 
L 362.983741 149.76 
L -118644.308082 149.76 
z
" style="fill:#00549f;"/>
   </g>
   <g id="patch_23">
    <path clip-path="url(#p5247e0b746)" d="M -118644.308082 147.44 
L 364.839504 147.44 
L 364.839504 138.16 
L -118644.308082 138.16 
z
" style="fill:#00549f;"/>
   </g>
   <g id="patch_24">
    <path clip-path="url(#p5247e0b746)" d="M -118644.308082 135.84 
L 367.996712 135.84 
L 367.996712 126.56 
L -118644.308082 126.56 
z
" style="fill:#00549f;"/>
   </g>
   <g id="patch_25">
    <path clip-path="url(#p5247e0b746)" d="M -118644.308082 124.24 
L 374.032038 124.24 
L 374.032038 114.96 
L -118644.308082 114.96 
z
" style="fill:#00549f;"/>
   </g>
   <g id="patch_26">
    <path clip-path="url(#p5247e0b746)" d="M -118644.308082 112.64 
L 376.326004 112.64 
L 376.326004 103.36 
L -118644.308082 103.36 
z
" style="fill:#00549f;"/>
   </g>
   <g id="patch_27">
    <path clip-path="url(#p5247e0b746)" d="M -118644.308082 101.04 
L 412.626702 101.04 
L 412.626702 91.76 
L -118644.308082 91.76 
z
" style="fill:#00549f;"/>
   </g>
   <g id="patch_28">
    <path clip-path="url(#p5247e0b746)" d="M -118644.308082 89.44 
L 441.057696 89.44 
L 441.057696 80.16 
L -118644.308082 80.16 
z
" style="fill:#00549f;"/>
   </g>
   <g id="patch_29">
    <path clip-path="url(#p5247e0b746)" d="M -118644.308082 77.84 
L 451.314901 77.84 
L 451.314901 68.56 
L -118644.308082 68.56 
z
" style="fill:#00549f;"/>
   </g>
   <g id="patch_30">
    <path clip-path="url(#p5247e0b746)" d="M -118644.308082 66.24 
L 452.934182 66.24 
L 452.934182 56.96 
L -118644.308082 56.96 
z
" style="fill:#00549f;"/>
   </g>
   <g id="patch_31">
    <path clip-path="url(#p5247e0b746)" d="M -118644.308082 54.64 
L 454.282343 54.64 
L 454.282343 45.36 
L -118644.308082 45.36 
z
" style="fill:#00549f;"/>
   </g>
   <g id="patch_32">
    <path clip-path="url(#p5247e0b746)" d="M -118644.308082 43.04 
L 477.295455 43.04 
L 477.295455 33.76 
L -118644.308082 33.76 
z
" style="fill:#00549f;"/>
   </g>
   <g id="matplotlib.axis_1">
    <g id="xtick_1">
     <g id="line2d_1">
      <path clip-path="url(#p5247e0b746)" d="M 184.662664 386.4 
L 184.662664 26.8 
" style="fill:none;stroke:#b0b0b0;stroke-linecap:square;stroke-width:0.8;"/>
     </g>
     <g id="line2d_2">
      <defs>
       <path d="M 0 0 
L 0 3.5 
" id="m0284681b9e" style="stroke:#000000;stroke-width:0.8;"/>
      </defs>
      <g>
       <use style="stroke:#000000;stroke-width:0.8;" x="184.662664" xlink:href="#m0284681b9e" y="386.4"/>
      </g>
     </g>
     <g id="text_1">
      <!-- $\mathdefault{10^{2}}$ -->
      <defs>
       <path d="M 12.40625 8.296875 
L 28.515625 8.296875 
L 28.515625 63.921875 
L 10.984375 60.40625 
L 10.984375 69.390625 
L 28.421875 72.90625 
L 38.28125 72.90625 
L 38.28125 8.296875 
L 54.390625 8.296875 
L 54.390625 0 
L 12.40625 0 
z
" id="DejaVuSans-49"/>
       <path d="M 31.78125 66.40625 
Q 24.171875 66.40625 20.328125 58.90625 
Q 16.5 51.421875 16.5 36.375 
Q 16.5 21.390625 20.328125 13.890625 
Q 24.171875 6.390625 31.78125 6.390625 
Q 39.453125 6.390625 43.28125 13.890625 
Q 47.125 21.390625 47.125 36.375 
Q 47.125 51.421875 43.28125 58.90625 
Q 39.453125 66.40625 31.78125 66.40625 
z
M 31.78125 74.21875 
Q 44.046875 74.21875 50.515625 64.515625 
Q 56.984375 54.828125 56.984375 36.375 
Q 56.984375 17.96875 50.515625 8.265625 
Q 44.046875 -1.421875 31.78125 -1.421875 
Q 19.53125 -1.421875 13.0625 8.265625 
Q 6.59375 17.96875 6.59375 36.375 
Q 6.59375 54.828125 13.0625 64.515625 
Q 19.53125 74.21875 31.78125 74.21875 
z
" id="DejaVuSans-48"/>
       <path d="M 19.1875 8.296875 
L 53.609375 8.296875 
L 53.609375 0 
L 7.328125 0 
L 7.328125 8.296875 
Q 12.9375 14.109375 22.625 23.890625 
Q 32.328125 33.6875 34.8125 36.53125 
Q 39.546875 41.84375 41.421875 45.53125 
Q 43.3125 49.21875 43.3125 52.78125 
Q 43.3125 58.59375 39.234375 62.25 
Q 35.15625 65.921875 28.609375 65.921875 
Q 23.96875 65.921875 18.8125 64.3125 
Q 13.671875 62.703125 7.8125 59.421875 
L 7.8125 69.390625 
Q 13.765625 71.78125 18.9375 73 
Q 24.125 74.21875 28.421875 74.21875 
Q 39.75 74.21875 46.484375 68.546875 
Q 53.21875 62.890625 53.21875 53.421875 
Q 53.21875 48.921875 51.53125 44.890625 
Q 49.859375 40.875 45.40625 35.40625 
Q 44.1875 33.984375 37.640625 27.21875 
Q 31.109375 20.453125 19.1875 8.296875 
z
" id="DejaVuSans-50"/>
      </defs>
      <g transform="translate(175.862664 400.998438)scale(0.1 -0.1)">
       <use transform="translate(0 0.765625)" xlink:href="#DejaVuSans-49"/>
       <use transform="translate(63.623047 0.765625)" xlink:href="#DejaVuSans-48"/>
       <use transform="translate(128.203125 39.046875)scale(0.7)" xlink:href="#DejaVuSans-50"/>
      </g>
     </g>
    </g>
    <g id="xtick_2">
     <g id="line2d_3">
      <path clip-path="url(#p5247e0b746)" d="M 303.254451 386.4 
L 303.254451 26.8 
" style="fill:none;stroke:#b0b0b0;stroke-linecap:square;stroke-width:0.8;"/>
     </g>
     <g id="line2d_4">
      <g>
       <use style="stroke:#000000;stroke-width:0.8;" x="303.254451" xlink:href="#m0284681b9e" y="386.4"/>
      </g>
     </g>
     <g id="text_2">
      <!-- $\mathdefault{10^{3}}$ -->
      <defs>
       <path d="M 40.578125 39.3125 
Q 47.65625 37.796875 51.625 33 
Q 55.609375 28.21875 55.609375 21.1875 
Q 55.609375 10.40625 48.1875 4.484375 
Q 40.765625 -1.421875 27.09375 -1.421875 
Q 22.515625 -1.421875 17.65625 -0.515625 
Q 12.796875 0.390625 7.625 2.203125 
L 7.625 11.71875 
Q 11.71875 9.328125 16.59375 8.109375 
Q 21.484375 6.890625 26.8125 6.890625 
Q 36.078125 6.890625 40.9375 10.546875 
Q 45.796875 14.203125 45.796875 21.1875 
Q 45.796875 27.640625 41.28125 31.265625 
Q 36.765625 34.90625 28.71875 34.90625 
L 20.21875 34.90625 
L 20.21875 43.015625 
L 29.109375 43.015625 
Q 36.375 43.015625 40.234375 45.921875 
Q 44.09375 48.828125 44.09375 54.296875 
Q 44.09375 59.90625 40.109375 62.90625 
Q 36.140625 65.921875 28.71875 65.921875 
Q 24.65625 65.921875 20.015625 65.03125 
Q 15.375 64.15625 9.8125 62.3125 
L 9.8125 71.09375 
Q 15.4375 72.65625 20.34375 73.4375 
Q 25.25 74.21875 29.59375 74.21875 
Q 40.828125 74.21875 47.359375 69.109375 
Q 53.90625 64.015625 53.90625 55.328125 
Q 53.90625 49.265625 50.4375 45.09375 
Q 46.96875 40.921875 40.578125 39.3125 
z
" id="DejaVuSans-51"/>
      </defs>
      <g transform="translate(294.454451 400.998438)scale(0.1 -0.1)">
       <use transform="translate(0 0.765625)" xlink:href="#DejaVuSans-49"/>
       <use transform="translate(63.623047 0.765625)" xlink:href="#DejaVuSans-48"/>
       <use transform="translate(128.203125 39.046875)scale(0.7)" xlink:href="#DejaVuSans-51"/>
      </g>
     </g>
    </g>
    <g id="xtick_3">
     <g id="line2d_5">
      <path clip-path="url(#p5247e0b746)" d="M 421.846238 386.4 
L 421.846238 26.8 
" style="fill:none;stroke:#b0b0b0;stroke-linecap:square;stroke-width:0.8;"/>
     </g>
     <g id="line2d_6">
      <g>
       <use style="stroke:#000000;stroke-width:0.8;" x="421.846238" xlink:href="#m0284681b9e" y="386.4"/>
      </g>
     </g>
     <g id="text_3">
      <!-- $\mathdefault{10^{4}}$ -->
      <defs>
       <path d="M 37.796875 64.3125 
L 12.890625 25.390625 
L 37.796875 25.390625 
z
M 35.203125 72.90625 
L 47.609375 72.90625 
L 47.609375 25.390625 
L 58.015625 25.390625 
L 58.015625 17.1875 
L 47.609375 17.1875 
L 47.609375 0 
L 37.796875 0 
L 37.796875 17.1875 
L 4.890625 17.1875 
L 4.890625 26.703125 
z
" id="DejaVuSans-52"/>
      </defs>
      <g transform="translate(413.046238 400.998438)scale(0.1 -0.1)">
       <use transform="translate(0 0.684375)" xlink:href="#DejaVuSans-49"/>
       <use transform="translate(63.623047 0.684375)" xlink:href="#DejaVuSans-48"/>
       <use transform="translate(128.203125 38.965625)scale(0.7)" xlink:href="#DejaVuSans-52"/>
      </g>
     </g>
    </g>
    <g id="xtick_4">
     <g id="line2d_7">
      <defs>
       <path d="M 0 0 
L 0 2 
" id="m4a7231227b" style="stroke:#000000;stroke-width:0.6;"/>
      </defs>
      <g>
       <use style="stroke:#000000;stroke-width:0.6;" x="148.962979" xlink:href="#m4a7231227b" y="386.4"/>
      </g>
     </g>
    </g>
    <g id="xtick_5">
     <g id="line2d_8">
      <g>
       <use style="stroke:#000000;stroke-width:0.6;" x="158.353224" xlink:href="#m4a7231227b" y="386.4"/>
      </g>
     </g>
    </g>
    <g id="xtick_6">
     <g id="line2d_9">
      <g>
       <use style="stroke:#000000;stroke-width:0.6;" x="166.292564" xlink:href="#m4a7231227b" y="386.4"/>
      </g>
     </g>
    </g>
    <g id="xtick_7">
     <g id="line2d_10">
      <g>
       <use style="stroke:#000000;stroke-width:0.6;" x="173.169932" xlink:href="#m4a7231227b" y="386.4"/>
      </g>
     </g>
    </g>
    <g id="xtick_8">
     <g id="line2d_11">
      <g>
       <use style="stroke:#000000;stroke-width:0.6;" x="179.236201" xlink:href="#m4a7231227b" y="386.4"/>
      </g>
     </g>
    </g>
    <g id="xtick_9">
     <g id="line2d_12">
      <g>
       <use style="stroke:#000000;stroke-width:0.6;" x="220.362349" xlink:href="#m4a7231227b" y="386.4"/>
      </g>
     </g>
    </g>
    <g id="xtick_10">
     <g id="line2d_13">
      <g>
       <use style="stroke:#000000;stroke-width:0.6;" x="241.245326" xlink:href="#m4a7231227b" y="386.4"/>
      </g>
     </g>
    </g>
    <g id="xtick_11">
     <g id="line2d_14">
      <g>
       <use style="stroke:#000000;stroke-width:0.6;" x="256.062034" xlink:href="#m4a7231227b" y="386.4"/>
      </g>
     </g>
    </g>
    <g id="xtick_12">
     <g id="line2d_15">
      <g>
       <use style="stroke:#000000;stroke-width:0.6;" x="267.554766" xlink:href="#m4a7231227b" y="386.4"/>
      </g>
     </g>
    </g>
    <g id="xtick_13">
     <g id="line2d_16">
      <g>
       <use style="stroke:#000000;stroke-width:0.6;" x="276.945011" xlink:href="#m4a7231227b" y="386.4"/>
      </g>
     </g>
    </g>
    <g id="xtick_14">
     <g id="line2d_17">
      <g>
       <use style="stroke:#000000;stroke-width:0.6;" x="284.884351" xlink:href="#m4a7231227b" y="386.4"/>
      </g>
     </g>
    </g>
    <g id="xtick_15">
     <g id="line2d_18">
      <g>
       <use style="stroke:#000000;stroke-width:0.6;" x="291.76172" xlink:href="#m4a7231227b" y="386.4"/>
      </g>
     </g>
    </g>
    <g id="xtick_16">
     <g id="line2d_19">
      <g>
       <use style="stroke:#000000;stroke-width:0.6;" x="297.827989" xlink:href="#m4a7231227b" y="386.4"/>
      </g>
     </g>
    </g>
    <g id="xtick_17">
     <g id="line2d_20">
      <g>
       <use style="stroke:#000000;stroke-width:0.6;" x="338.954136" xlink:href="#m4a7231227b" y="386.4"/>
      </g>
     </g>
    </g>
    <g id="xtick_18">
     <g id="line2d_21">
      <g>
       <use style="stroke:#000000;stroke-width:0.6;" x="359.837113" xlink:href="#m4a7231227b" y="386.4"/>
      </g>
     </g>
    </g>
    <g id="xtick_19">
     <g id="line2d_22">
      <g>
       <use style="stroke:#000000;stroke-width:0.6;" x="374.653822" xlink:href="#m4a7231227b" y="386.4"/>
      </g>
     </g>
    </g>
    <g id="xtick_20">
     <g id="line2d_23">
      <g>
       <use style="stroke:#000000;stroke-width:0.6;" x="386.146553" xlink:href="#m4a7231227b" y="386.4"/>
      </g>
     </g>
    </g>
    <g id="xtick_21">
     <g id="line2d_24">
      <g>
       <use style="stroke:#000000;stroke-width:0.6;" x="395.536799" xlink:href="#m4a7231227b" y="386.4"/>
      </g>
     </g>
    </g>
    <g id="xtick_22">
     <g id="line2d_25">
      <g>
       <use style="stroke:#000000;stroke-width:0.6;" x="403.476138" xlink:href="#m4a7231227b" y="386.4"/>
      </g>
     </g>
    </g>
    <g id="xtick_23">
     <g id="line2d_26">
      <g>
       <use style="stroke:#000000;stroke-width:0.6;" x="410.353507" xlink:href="#m4a7231227b" y="386.4"/>
      </g>
     </g>
    </g>
    <g id="xtick_24">
     <g id="line2d_27">
      <g>
       <use style="stroke:#000000;stroke-width:0.6;" x="416.419776" xlink:href="#m4a7231227b" y="386.4"/>
      </g>
     </g>
    </g>
    <g id="xtick_25">
     <g id="line2d_28">
      <g>
       <use style="stroke:#000000;stroke-width:0.6;" x="457.545923" xlink:href="#m4a7231227b" y="386.4"/>
      </g>
     </g>
    </g>
    <g id="xtick_26">
     <g id="line2d_29">
      <g>
       <use style="stroke:#000000;stroke-width:0.6;" x="478.428901" xlink:href="#m4a7231227b" y="386.4"/>
      </g>
     </g>
    </g>
    <g id="text_4">
     <!-- Number of proteins/complexes -->
     <defs>
      <path d="M 9.8125 72.90625 
L 23.09375 72.90625 
L 55.421875 11.921875 
L 55.421875 72.90625 
L 64.984375 72.90625 
L 64.984375 0 
L 51.703125 0 
L 19.390625 60.984375 
L 19.390625 0 
L 9.8125 0 
z
" id="DejaVuSans-78"/>
      <path d="M 8.5 21.578125 
L 8.5 54.6875 
L 17.484375 54.6875 
L 17.484375 21.921875 
Q 17.484375 14.15625 20.5 10.265625 
Q 23.53125 6.390625 29.59375 6.390625 
Q 36.859375 6.390625 41.078125 11.03125 
Q 45.3125 15.671875 45.3125 23.6875 
L 45.3125 54.6875 
L 54.296875 54.6875 
L 54.296875 0 
L 45.3125 0 
L 45.3125 8.40625 
Q 42.046875 3.421875 37.71875 1 
Q 33.40625 -1.421875 27.6875 -1.421875 
Q 18.265625 -1.421875 13.375 4.4375 
Q 8.5 10.296875 8.5 21.578125 
z
M 31.109375 56 
z
" id="DejaVuSans-117"/>
      <path d="M 52 44.1875 
Q 55.375 50.25 60.0625 53.125 
Q 64.75 56 71.09375 56 
Q 79.640625 56 84.28125 50.015625 
Q 88.921875 44.046875 88.921875 33.015625 
L 88.921875 0 
L 79.890625 0 
L 79.890625 32.71875 
Q 79.890625 40.578125 77.09375 44.375 
Q 74.3125 48.1875 68.609375 48.1875 
Q 61.625 48.1875 57.5625 43.546875 
Q 53.515625 38.921875 53.515625 30.90625 
L 53.515625 0 
L 44.484375 0 
L 44.484375 32.71875 
Q 44.484375 40.625 41.703125 44.40625 
Q 38.921875 48.1875 33.109375 48.1875 
Q 26.21875 48.1875 22.15625 43.53125 
Q 18.109375 38.875 18.109375 30.90625 
L 18.109375 0 
L 9.078125 0 
L 9.078125 54.6875 
L 18.109375 54.6875 
L 18.109375 46.1875 
Q 21.1875 51.21875 25.484375 53.609375 
Q 29.78125 56 35.6875 56 
Q 41.65625 56 45.828125 52.96875 
Q 50 49.953125 52 44.1875 
z
" id="DejaVuSans-109"/>
      <path d="M 48.6875 27.296875 
Q 48.6875 37.203125 44.609375 42.84375 
Q 40.53125 48.484375 33.40625 48.484375 
Q 26.265625 48.484375 22.1875 42.84375 
Q 18.109375 37.203125 18.109375 27.296875 
Q 18.109375 17.390625 22.1875 11.75 
Q 26.265625 6.109375 33.40625 6.109375 
Q 40.53125 6.109375 44.609375 11.75 
Q 48.6875 17.390625 48.6875 27.296875 
z
M 18.109375 46.390625 
Q 20.953125 51.265625 25.265625 53.625 
Q 29.59375 56 35.59375 56 
Q 45.5625 56 51.78125 48.09375 
Q 58.015625 40.1875 58.015625 27.296875 
Q 58.015625 14.40625 51.78125 6.484375 
Q 45.5625 -1.421875 35.59375 -1.421875 
Q 29.59375 -1.421875 25.265625 0.953125 
Q 20.953125 3.328125 18.109375 8.203125 
L 18.109375 0 
L 9.078125 0 
L 9.078125 75.984375 
L 18.109375 75.984375 
z
" id="DejaVuSans-98"/>
      <path d="M 56.203125 29.59375 
L 56.203125 25.203125 
L 14.890625 25.203125 
Q 15.484375 15.921875 20.484375 11.0625 
Q 25.484375 6.203125 34.421875 6.203125 
Q 39.59375 6.203125 44.453125 7.46875 
Q 49.3125 8.734375 54.109375 11.28125 
L 54.109375 2.78125 
Q 49.265625 0.734375 44.1875 -0.34375 
Q 39.109375 -1.421875 33.890625 -1.421875 
Q 20.796875 -1.421875 13.15625 6.1875 
Q 5.515625 13.8125 5.515625 26.8125 
Q 5.515625 40.234375 12.765625 48.109375 
Q 20.015625 56 32.328125 56 
Q 43.359375 56 49.78125 48.890625 
Q 56.203125 41.796875 56.203125 29.59375 
z
M 47.21875 32.234375 
Q 47.125 39.59375 43.09375 43.984375 
Q 39.0625 48.390625 32.421875 48.390625 
Q 24.90625 48.390625 20.390625 44.140625 
Q 15.875 39.890625 15.1875 32.171875 
z
" id="DejaVuSans-101"/>
      <path d="M 41.109375 46.296875 
Q 39.59375 47.171875 37.8125 47.578125 
Q 36.03125 48 33.890625 48 
Q 26.265625 48 22.1875 43.046875 
Q 18.109375 38.09375 18.109375 28.8125 
L 18.109375 0 
L 9.078125 0 
L 9.078125 54.6875 
L 18.109375 54.6875 
L 18.109375 46.1875 
Q 20.953125 51.171875 25.484375 53.578125 
Q 30.03125 56 36.53125 56 
Q 37.453125 56 38.578125 55.875 
Q 39.703125 55.765625 41.0625 55.515625 
z
" id="DejaVuSans-114"/>
      <path id="DejaVuSans-32"/>
      <path d="M 30.609375 48.390625 
Q 23.390625 48.390625 19.1875 42.75 
Q 14.984375 37.109375 14.984375 27.296875 
Q 14.984375 17.484375 19.15625 11.84375 
Q 23.34375 6.203125 30.609375 6.203125 
Q 37.796875 6.203125 41.984375 11.859375 
Q 46.1875 17.53125 46.1875 27.296875 
Q 46.1875 37.015625 41.984375 42.703125 
Q 37.796875 48.390625 30.609375 48.390625 
z
M 30.609375 56 
Q 42.328125 56 49.015625 48.375 
Q 55.71875 40.765625 55.71875 27.296875 
Q 55.71875 13.875 49.015625 6.21875 
Q 42.328125 -1.421875 30.609375 -1.421875 
Q 18.84375 -1.421875 12.171875 6.21875 
Q 5.515625 13.875 5.515625 27.296875 
Q 5.515625 40.765625 12.171875 48.375 
Q 18.84375 56 30.609375 56 
z
" id="DejaVuSans-111"/>
      <path d="M 37.109375 75.984375 
L 37.109375 68.5 
L 28.515625 68.5 
Q 23.6875 68.5 21.796875 66.546875 
Q 19.921875 64.59375 19.921875 59.515625 
L 19.921875 54.6875 
L 34.71875 54.6875 
L 34.71875 47.703125 
L 19.921875 47.703125 
L 19.921875 0 
L 10.890625 0 
L 10.890625 47.703125 
L 2.296875 47.703125 
L 2.296875 54.6875 
L 10.890625 54.6875 
L 10.890625 58.5 
Q 10.890625 67.625 15.140625 71.796875 
Q 19.390625 75.984375 28.609375 75.984375 
z
" id="DejaVuSans-102"/>
      <path d="M 18.109375 8.203125 
L 18.109375 -20.796875 
L 9.078125 -20.796875 
L 9.078125 54.6875 
L 18.109375 54.6875 
L 18.109375 46.390625 
Q 20.953125 51.265625 25.265625 53.625 
Q 29.59375 56 35.59375 56 
Q 45.5625 56 51.78125 48.09375 
Q 58.015625 40.1875 58.015625 27.296875 
Q 58.015625 14.40625 51.78125 6.484375 
Q 45.5625 -1.421875 35.59375 -1.421875 
Q 29.59375 -1.421875 25.265625 0.953125 
Q 20.953125 3.328125 18.109375 8.203125 
z
M 48.6875 27.296875 
Q 48.6875 37.203125 44.609375 42.84375 
Q 40.53125 48.484375 33.40625 48.484375 
Q 26.265625 48.484375 22.1875 42.84375 
Q 18.109375 37.203125 18.109375 27.296875 
Q 18.109375 17.390625 22.1875 11.75 
Q 26.265625 6.109375 33.40625 6.109375 
Q 40.53125 6.109375 44.609375 11.75 
Q 48.6875 17.390625 48.6875 27.296875 
z
" id="DejaVuSans-112"/>
      <path d="M 18.3125 70.21875 
L 18.3125 54.6875 
L 36.8125 54.6875 
L 36.8125 47.703125 
L 18.3125 47.703125 
L 18.3125 18.015625 
Q 18.3125 11.328125 20.140625 9.421875 
Q 21.96875 7.515625 27.59375 7.515625 
L 36.8125 7.515625 
L 36.8125 0 
L 27.59375 0 
Q 17.1875 0 13.234375 3.875 
Q 9.28125 7.765625 9.28125 18.015625 
L 9.28125 47.703125 
L 2.6875 47.703125 
L 2.6875 54.6875 
L 9.28125 54.6875 
L 9.28125 70.21875 
z
" id="DejaVuSans-116"/>
      <path d="M 9.421875 54.6875 
L 18.40625 54.6875 
L 18.40625 0 
L 9.421875 0 
z
M 9.421875 75.984375 
L 18.40625 75.984375 
L 18.40625 64.59375 
L 9.421875 64.59375 
z
" id="DejaVuSans-105"/>
      <path d="M 54.890625 33.015625 
L 54.890625 0 
L 45.90625 0 
L 45.90625 32.71875 
Q 45.90625 40.484375 42.875 44.328125 
Q 39.84375 48.1875 33.796875 48.1875 
Q 26.515625 48.1875 22.3125 43.546875 
Q 18.109375 38.921875 18.109375 30.90625 
L 18.109375 0 
L 9.078125 0 
L 9.078125 54.6875 
L 18.109375 54.6875 
L 18.109375 46.1875 
Q 21.34375 51.125 25.703125 53.5625 
Q 30.078125 56 35.796875 56 
Q 45.21875 56 50.046875 50.171875 
Q 54.890625 44.34375 54.890625 33.015625 
z
" id="DejaVuSans-110"/>
      <path d="M 44.28125 53.078125 
L 44.28125 44.578125 
Q 40.484375 46.53125 36.375 47.5 
Q 32.28125 48.484375 27.875 48.484375 
Q 21.1875 48.484375 17.84375 46.4375 
Q 14.5 44.390625 14.5 40.28125 
Q 14.5 37.15625 16.890625 35.375 
Q 19.28125 33.59375 26.515625 31.984375 
L 29.59375 31.296875 
Q 39.15625 29.25 43.1875 25.515625 
Q 47.21875 21.78125 47.21875 15.09375 
Q 47.21875 7.46875 41.1875 3.015625 
Q 35.15625 -1.421875 24.609375 -1.421875 
Q 20.21875 -1.421875 15.453125 -0.5625 
Q 10.6875 0.296875 5.421875 2 
L 5.421875 11.28125 
Q 10.40625 8.6875 15.234375 7.390625 
Q 20.0625 6.109375 24.8125 6.109375 
Q 31.15625 6.109375 34.5625 8.28125 
Q 37.984375 10.453125 37.984375 14.40625 
Q 37.984375 18.0625 35.515625 20.015625 
Q 33.0625 21.96875 24.703125 23.78125 
L 21.578125 24.515625 
Q 13.234375 26.265625 9.515625 29.90625 
Q 5.8125 33.546875 5.8125 39.890625 
Q 5.8125 47.609375 11.28125 51.796875 
Q 16.75 56 26.8125 56 
Q 31.78125 56 36.171875 55.265625 
Q 40.578125 54.546875 44.28125 53.078125 
z
" id="DejaVuSans-115"/>
      <path d="M 25.390625 72.90625 
L 33.6875 72.90625 
L 8.296875 -9.28125 
L 0 -9.28125 
z
" id="DejaVuSans-47"/>
      <path d="M 48.78125 52.59375 
L 48.78125 44.1875 
Q 44.96875 46.296875 41.140625 47.34375 
Q 37.3125 48.390625 33.40625 48.390625 
Q 24.65625 48.390625 19.8125 42.84375 
Q 14.984375 37.3125 14.984375 27.296875 
Q 14.984375 17.28125 19.8125 11.734375 
Q 24.65625 6.203125 33.40625 6.203125 
Q 37.3125 6.203125 41.140625 7.25 
Q 44.96875 8.296875 48.78125 10.40625 
L 48.78125 2.09375 
Q 45.015625 0.34375 40.984375 -0.53125 
Q 36.96875 -1.421875 32.421875 -1.421875 
Q 20.0625 -1.421875 12.78125 6.34375 
Q 5.515625 14.109375 5.515625 27.296875 
Q 5.515625 40.671875 12.859375 48.328125 
Q 20.21875 56 33.015625 56 
Q 37.15625 56 41.109375 55.140625 
Q 45.0625 54.296875 48.78125 52.59375 
z
" id="DejaVuSans-99"/>
      <path d="M 9.421875 75.984375 
L 18.40625 75.984375 
L 18.40625 0 
L 9.421875 0 
z
" id="DejaVuSans-108"/>
      <path d="M 54.890625 54.6875 
L 35.109375 28.078125 
L 55.90625 0 
L 45.3125 0 
L 29.390625 21.484375 
L 13.484375 0 
L 2.875 0 
L 24.125 28.609375 
L 4.6875 54.6875 
L 15.28125 54.6875 
L 29.78125 35.203125 
L 44.28125 54.6875 
z
" id="DejaVuSans-120"/>
     </defs>
     <g transform="translate(241.039062 414.676563)scale(0.1 -0.1)">
      <use xlink:href="#DejaVuSans-78"/>
      <use x="74.804688" xlink:href="#DejaVuSans-117"/>
      <use x="138.183594" xlink:href="#DejaVuSans-109"/>
      <use x="235.595703" xlink:href="#DejaVuSans-98"/>
      <use x="299.072266" xlink:href="#DejaVuSans-101"/>
      <use x="360.595703" xlink:href="#DejaVuSans-114"/>
      <use x="401.708984" xlink:href="#DejaVuSans-32"/>
      <use x="433.496094" xlink:href="#DejaVuSans-111"/>
      <use x="494.677734" xlink:href="#DejaVuSans-102"/>
      <use x="529.882812" xlink:href="#DejaVuSans-32"/>
      <use x="561.669922" xlink:href="#DejaVuSans-112"/>
      <use x="625.146484" xlink:href="#DejaVuSans-114"/>
      <use x="666.228516" xlink:href="#DejaVuSans-111"/>
      <use x="727.410156" xlink:href="#DejaVuSans-116"/>
      <use x="766.619141" xlink:href="#DejaVuSans-101"/>
      <use x="828.142578" xlink:href="#DejaVuSans-105"/>
      <use x="855.925781" xlink:href="#DejaVuSans-110"/>
      <use x="919.304688" xlink:href="#DejaVuSans-115"/>
      <use x="971.404297" xlink:href="#DejaVuSans-47"/>
      <use x="1005.095703" xlink:href="#DejaVuSans-99"/>
      <use x="1060.076172" xlink:href="#DejaVuSans-111"/>
      <use x="1121.257812" xlink:href="#DejaVuSans-109"/>
      <use x="1218.669922" xlink:href="#DejaVuSans-112"/>
      <use x="1282.146484" xlink:href="#DejaVuSans-108"/>
      <use x="1309.929688" xlink:href="#DejaVuSans-101"/>
      <use x="1371.4375" xlink:href="#DejaVuSans-120"/>
      <use x="1430.570312" xlink:href="#DejaVuSans-101"/>
      <use x="1492.09375" xlink:href="#DejaVuSans-115"/>
     </g>
    </g>
   </g>
   <g id="matplotlib.axis_2">
    <g id="ytick_1">
     <g id="line2d_30">
      <defs>
       <path d="M 0 0 
L -3.5 0 
" id="m9cdbefc3f8" style="stroke:#000000;stroke-width:0.8;"/>
      </defs>
      <g>
       <use style="stroke:#000000;stroke-width:0.8;" x="143.3" xlink:href="#m9cdbefc3f8" y="374.8"/>
      </g>
     </g>
     <g id="text_5">
      <!-- CellPhoneDB_complex -->
      <defs>
       <path d="M 64.40625 67.28125 
L 64.40625 56.890625 
Q 59.421875 61.53125 53.78125 63.8125 
Q 48.140625 66.109375 41.796875 66.109375 
Q 29.296875 66.109375 22.65625 58.46875 
Q 16.015625 50.828125 16.015625 36.375 
Q 16.015625 21.96875 22.65625 14.328125 
Q 29.296875 6.6875 41.796875 6.6875 
Q 48.140625 6.6875 53.78125 8.984375 
Q 59.421875 11.28125 64.40625 15.921875 
L 64.40625 5.609375 
Q 59.234375 2.09375 53.4375 0.328125 
Q 47.65625 -1.421875 41.21875 -1.421875 
Q 24.65625 -1.421875 15.125 8.703125 
Q 5.609375 18.84375 5.609375 36.375 
Q 5.609375 53.953125 15.125 64.078125 
Q 24.65625 74.21875 41.21875 74.21875 
Q 47.75 74.21875 53.53125 72.484375 
Q 59.328125 70.75 64.40625 67.28125 
z
" id="DejaVuSans-67"/>
       <path d="M 19.671875 64.796875 
L 19.671875 37.40625 
L 32.078125 37.40625 
Q 38.96875 37.40625 42.71875 40.96875 
Q 46.484375 44.53125 46.484375 51.125 
Q 46.484375 57.671875 42.71875 61.234375 
Q 38.96875 64.796875 32.078125 64.796875 
z
M 9.8125 72.90625 
L 32.078125 72.90625 
Q 44.34375 72.90625 50.609375 67.359375 
Q 56.890625 61.8125 56.890625 51.125 
Q 56.890625 40.328125 50.609375 34.8125 
Q 44.34375 29.296875 32.078125 29.296875 
L 19.671875 29.296875 
L 19.671875 0 
L 9.8125 0 
z
" id="DejaVuSans-80"/>
       <path d="M 54.890625 33.015625 
L 54.890625 0 
L 45.90625 0 
L 45.90625 32.71875 
Q 45.90625 40.484375 42.875 44.328125 
Q 39.84375 48.1875 33.796875 48.1875 
Q 26.515625 48.1875 22.3125 43.546875 
Q 18.109375 38.921875 18.109375 30.90625 
L 18.109375 0 
L 9.078125 0 
L 9.078125 75.984375 
L 18.109375 75.984375 
L 18.109375 46.1875 
Q 21.34375 51.125 25.703125 53.5625 
Q 30.078125 56 35.796875 56 
Q 45.21875 56 50.046875 50.171875 
Q 54.890625 44.34375 54.890625 33.015625 
z
" id="DejaVuSans-104"/>
       <path d="M 19.671875 64.796875 
L 19.671875 8.109375 
L 31.59375 8.109375 
Q 46.6875 8.109375 53.6875 14.9375 
Q 60.6875 21.78125 60.6875 36.53125 
Q 60.6875 51.171875 53.6875 57.984375 
Q 46.6875 64.796875 31.59375 64.796875 
z
M 9.8125 72.90625 
L 30.078125 72.90625 
Q 51.265625 72.90625 61.171875 64.09375 
Q 71.09375 55.28125 71.09375 36.53125 
Q 71.09375 17.671875 61.125 8.828125 
Q 51.171875 0 30.078125 0 
L 9.8125 0 
z
" id="DejaVuSans-68"/>
       <path d="M 19.671875 34.8125 
L 19.671875 8.109375 
L 35.5 8.109375 
Q 43.453125 8.109375 47.28125 11.40625 
Q 51.125 14.703125 51.125 21.484375 
Q 51.125 28.328125 47.28125 31.5625 
Q 43.453125 34.8125 35.5 34.8125 
z
M 19.671875 64.796875 
L 19.671875 42.828125 
L 34.28125 42.828125 
Q 41.5 42.828125 45.03125 45.53125 
Q 48.578125 48.25 48.578125 53.8125 
Q 48.578125 59.328125 45.03125 62.0625 
Q 41.5 64.796875 34.28125 64.796875 
z
M 9.8125 72.90625 
L 35.015625 72.90625 
Q 46.296875 72.90625 52.390625 68.21875 
Q 58.5 63.53125 58.5 54.890625 
Q 58.5 48.1875 55.375 44.234375 
Q 52.25 40.28125 46.1875 39.3125 
Q 53.46875 37.75 57.5 32.78125 
Q 61.53125 27.828125 61.53125 20.40625 
Q 61.53125 10.640625 54.890625 5.3125 
Q 48.25 0 35.984375 0 
L 9.8125 0 
z
" id="DejaVuSans-66"/>
       <path d="M 50.984375 -16.609375 
L 50.984375 -23.578125 
L -0.984375 -23.578125 
L -0.984375 -16.609375 
z
" id="DejaVuSans-95"/>
      </defs>
      <g transform="translate(24.515625 378.599219)scale(0.1 -0.1)">
       <use xlink:href="#DejaVuSans-67"/>
       <use x="69.824219" xlink:href="#DejaVuSans-101"/>
       <use x="131.347656" xlink:href="#DejaVuSans-108"/>
       <use x="159.130859" xlink:href="#DejaVuSans-108"/>
       <use x="186.914062" xlink:href="#DejaVuSans-80"/>
       <use x="247.216797" xlink:href="#DejaVuSans-104"/>
       <use x="310.595703" xlink:href="#DejaVuSans-111"/>
       <use x="371.777344" xlink:href="#DejaVuSans-110"/>
       <use x="435.15625" xlink:href="#DejaVuSans-101"/>
       <use x="496.679688" xlink:href="#DejaVuSans-68"/>
       <use x="573.681641" xlink:href="#DejaVuSans-66"/>
       <use x="642.285156" xlink:href="#DejaVuSans-95"/>
       <use x="692.285156" xlink:href="#DejaVuSans-99"/>
       <use x="747.265625" xlink:href="#DejaVuSans-111"/>
       <use x="808.447266" xlink:href="#DejaVuSans-109"/>
       <use x="905.859375" xlink:href="#DejaVuSans-112"/>
       <use x="969.335938" xlink:href="#DejaVuSans-108"/>
       <use x="997.119141" xlink:href="#DejaVuSans-101"/>
       <use x="1058.626953" xlink:href="#DejaVuSans-120"/>
      </g>
     </g>
    </g>
    <g id="ytick_2">
     <g id="line2d_31">
      <g>
       <use style="stroke:#000000;stroke-width:0.8;" x="143.3" xlink:href="#m9cdbefc3f8" y="363.2"/>
      </g>
     </g>
     <g id="text_6">
      <!-- Integrins -->
      <defs>
       <path d="M 9.8125 72.90625 
L 19.671875 72.90625 
L 19.671875 0 
L 9.8125 0 
z
" id="DejaVuSans-73"/>
       <path d="M 45.40625 27.984375 
Q 45.40625 37.75 41.375 43.109375 
Q 37.359375 48.484375 30.078125 48.484375 
Q 22.859375 48.484375 18.828125 43.109375 
Q 14.796875 37.75 14.796875 27.984375 
Q 14.796875 18.265625 18.828125 12.890625 
Q 22.859375 7.515625 30.078125 7.515625 
Q 37.359375 7.515625 41.375 12.890625 
Q 45.40625 18.265625 45.40625 27.984375 
z
M 54.390625 6.78125 
Q 54.390625 -7.171875 48.1875 -13.984375 
Q 42 -20.796875 29.203125 -20.796875 
Q 24.46875 -20.796875 20.265625 -20.09375 
Q 16.0625 -19.390625 12.109375 -17.921875 
L 12.109375 -9.1875 
Q 16.0625 -11.328125 19.921875 -12.34375 
Q 23.78125 -13.375 27.78125 -13.375 
Q 36.625 -13.375 41.015625 -8.765625 
Q 45.40625 -4.15625 45.40625 5.171875 
L 45.40625 9.625 
Q 42.625 4.78125 38.28125 2.390625 
Q 33.9375 0 27.875 0 
Q 17.828125 0 11.671875 7.65625 
Q 5.515625 15.328125 5.515625 27.984375 
Q 5.515625 40.671875 11.671875 48.328125 
Q 17.828125 56 27.875 56 
Q 33.9375 56 38.28125 53.609375 
Q 42.625 51.21875 45.40625 46.390625 
L 45.40625 54.6875 
L 54.390625 54.6875 
z
" id="DejaVuSans-103"/>
      </defs>
      <g transform="translate(92.154687 366.999219)scale(0.1 -0.1)">
       <use xlink:href="#DejaVuSans-73"/>
       <use x="29.492188" xlink:href="#DejaVuSans-110"/>
       <use x="92.871094" xlink:href="#DejaVuSans-116"/>
       <use x="132.080078" xlink:href="#DejaVuSans-101"/>
       <use x="193.603516" xlink:href="#DejaVuSans-103"/>
       <use x="257.080078" xlink:href="#DejaVuSans-114"/>
       <use x="298.193359" xlink:href="#DejaVuSans-105"/>
       <use x="325.976562" xlink:href="#DejaVuSans-110"/>
       <use x="389.355469" xlink:href="#DejaVuSans-115"/>
      </g>
     </g>
    </g>
    <g id="ytick_3">
     <g id="line2d_32">
      <g>
       <use style="stroke:#000000;stroke-width:0.8;" x="143.3" xlink:href="#m9cdbefc3f8" y="351.6"/>
      </g>
     </g>
     <g id="text_7">
      <!-- HPMR_complex -->
      <defs>
       <path d="M 9.8125 72.90625 
L 19.671875 72.90625 
L 19.671875 43.015625 
L 55.515625 43.015625 
L 55.515625 72.90625 
L 65.375 72.90625 
L 65.375 0 
L 55.515625 0 
L 55.515625 34.71875 
L 19.671875 34.71875 
L 19.671875 0 
L 9.8125 0 
z
" id="DejaVuSans-72"/>
       <path d="M 9.8125 72.90625 
L 24.515625 72.90625 
L 43.109375 23.296875 
L 61.8125 72.90625 
L 76.515625 72.90625 
L 76.515625 0 
L 66.890625 0 
L 66.890625 64.015625 
L 48.09375 14.015625 
L 38.1875 14.015625 
L 19.390625 64.015625 
L 19.390625 0 
L 9.8125 0 
z
" id="DejaVuSans-77"/>
       <path d="M 44.390625 34.1875 
Q 47.5625 33.109375 50.5625 29.59375 
Q 53.5625 26.078125 56.59375 19.921875 
L 66.609375 0 
L 56 0 
L 46.6875 18.703125 
Q 43.0625 26.03125 39.671875 28.421875 
Q 36.28125 30.8125 30.421875 30.8125 
L 19.671875 30.8125 
L 19.671875 0 
L 9.8125 0 
L 9.8125 72.90625 
L 32.078125 72.90625 
Q 44.578125 72.90625 50.734375 67.671875 
Q 56.890625 62.453125 56.890625 51.90625 
Q 56.890625 45.015625 53.6875 40.46875 
Q 50.484375 35.9375 44.390625 34.1875 
z
M 19.671875 64.796875 
L 19.671875 38.921875 
L 32.078125 38.921875 
Q 39.203125 38.921875 42.84375 42.21875 
Q 46.484375 45.515625 46.484375 51.90625 
Q 46.484375 58.296875 42.84375 61.546875 
Q 39.203125 64.796875 32.078125 64.796875 
z
" id="DejaVuSans-82"/>
      </defs>
      <g transform="translate(59.61875 355.399219)scale(0.1 -0.1)">
       <use xlink:href="#DejaVuSans-72"/>
       <use x="75.195312" xlink:href="#DejaVuSans-80"/>
       <use x="135.498047" xlink:href="#DejaVuSans-77"/>
       <use x="221.777344" xlink:href="#DejaVuSans-82"/>
       <use x="291.259766" xlink:href="#DejaVuSans-95"/>
       <use x="341.259766" xlink:href="#DejaVuSans-99"/>
       <use x="396.240234" xlink:href="#DejaVuSans-111"/>
       <use x="457.421875" xlink:href="#DejaVuSans-109"/>
       <use x="554.833984" xlink:href="#DejaVuSans-112"/>
       <use x="618.310547" xlink:href="#DejaVuSans-108"/>
       <use x="646.09375" xlink:href="#DejaVuSans-101"/>
       <use x="707.601562" xlink:href="#DejaVuSans-120"/>
      </g>
     </g>
    </g>
    <g id="ytick_4">
     <g id="line2d_33">
      <g>
       <use style="stroke:#000000;stroke-width:0.8;" x="143.3" xlink:href="#m9cdbefc3f8" y="340"/>
      </g>
     </g>
     <g id="text_8">
      <!-- Phosphatome -->
      <defs>
       <path d="M 34.28125 27.484375 
Q 23.390625 27.484375 19.1875 25 
Q 14.984375 22.515625 14.984375 16.5 
Q 14.984375 11.71875 18.140625 8.90625 
Q 21.296875 6.109375 26.703125 6.109375 
Q 34.1875 6.109375 38.703125 11.40625 
Q 43.21875 16.703125 43.21875 25.484375 
L 43.21875 27.484375 
z
M 52.203125 31.203125 
L 52.203125 0 
L 43.21875 0 
L 43.21875 8.296875 
Q 40.140625 3.328125 35.546875 0.953125 
Q 30.953125 -1.421875 24.3125 -1.421875 
Q 15.921875 -1.421875 10.953125 3.296875 
Q 6 8.015625 6 15.921875 
Q 6 25.140625 12.171875 29.828125 
Q 18.359375 34.515625 30.609375 34.515625 
L 43.21875 34.515625 
L 43.21875 35.40625 
Q 43.21875 41.609375 39.140625 45 
Q 35.0625 48.390625 27.6875 48.390625 
Q 23 48.390625 18.546875 47.265625 
Q 14.109375 46.140625 10.015625 43.890625 
L 10.015625 52.203125 
Q 14.9375 54.109375 19.578125 55.046875 
Q 24.21875 56 28.609375 56 
Q 40.484375 56 46.34375 49.84375 
Q 52.203125 43.703125 52.203125 31.203125 
z
" id="DejaVuSans-97"/>
      </defs>
      <g transform="translate(67.857812 343.799219)scale(0.1 -0.1)">
       <use xlink:href="#DejaVuSans-80"/>
       <use x="60.302734" xlink:href="#DejaVuSans-104"/>
       <use x="123.681641" xlink:href="#DejaVuSans-111"/>
       <use x="184.863281" xlink:href="#DejaVuSans-115"/>
       <use x="236.962891" xlink:href="#DejaVuSans-112"/>
       <use x="300.439453" xlink:href="#DejaVuSans-104"/>
       <use x="363.818359" xlink:href="#DejaVuSans-97"/>
       <use x="425.097656" xlink:href="#DejaVuSans-116"/>
       <use x="464.306641" xlink:href="#DejaVuSans-111"/>
       <use x="525.488281" xlink:href="#DejaVuSans-109"/>
       <use x="622.900391" xlink:href="#DejaVuSans-101"/>
      </g>
     </g>
    </g>
    <g id="ytick_5">
     <g id="line2d_34">
      <g>
       <use style="stroke:#000000;stroke-width:0.8;" x="143.3" xlink:href="#m9cdbefc3f8" y="328.4"/>
      </g>
     </g>
     <g id="text_9">
      <!-- Adhesome -->
      <defs>
       <path d="M 34.1875 63.1875 
L 20.796875 26.90625 
L 47.609375 26.90625 
z
M 28.609375 72.90625 
L 39.796875 72.90625 
L 67.578125 0 
L 57.328125 0 
L 50.6875 18.703125 
L 17.828125 18.703125 
L 11.1875 0 
L 0.78125 0 
z
" id="DejaVuSans-65"/>
       <path d="M 45.40625 46.390625 
L 45.40625 75.984375 
L 54.390625 75.984375 
L 54.390625 0 
L 45.40625 0 
L 45.40625 8.203125 
Q 42.578125 3.328125 38.25 0.953125 
Q 33.9375 -1.421875 27.875 -1.421875 
Q 17.96875 -1.421875 11.734375 6.484375 
Q 5.515625 14.40625 5.515625 27.296875 
Q 5.515625 40.1875 11.734375 48.09375 
Q 17.96875 56 27.875 56 
Q 33.9375 56 38.25 53.625 
Q 42.578125 51.265625 45.40625 46.390625 
z
M 14.796875 27.296875 
Q 14.796875 17.390625 18.875 11.75 
Q 22.953125 6.109375 30.078125 6.109375 
Q 37.203125 6.109375 41.296875 11.75 
Q 45.40625 17.390625 45.40625 27.296875 
Q 45.40625 37.203125 41.296875 42.84375 
Q 37.203125 48.484375 30.078125 48.484375 
Q 22.953125 48.484375 18.875 42.84375 
Q 14.796875 37.203125 14.796875 27.296875 
z
" id="DejaVuSans-100"/>
      </defs>
      <g transform="translate(83.4 332.199219)scale(0.1 -0.1)">
       <use xlink:href="#DejaVuSans-65"/>
       <use x="68.392578" xlink:href="#DejaVuSans-100"/>
       <use x="131.869141" xlink:href="#DejaVuSans-104"/>
       <use x="195.248047" xlink:href="#DejaVuSans-101"/>
       <use x="256.771484" xlink:href="#DejaVuSans-115"/>
       <use x="308.871094" xlink:href="#DejaVuSans-111"/>
       <use x="370.052734" xlink:href="#DejaVuSans-109"/>
       <use x="467.464844" xlink:href="#DejaVuSans-101"/>
      </g>
     </g>
    </g>
    <g id="ytick_6">
     <g id="line2d_35">
      <g>
       <use style="stroke:#000000;stroke-width:0.8;" x="143.3" xlink:href="#m9cdbefc3f8" y="316.8"/>
      </g>
     </g>
     <g id="text_10">
      <!-- OPM -->
      <defs>
       <path d="M 39.40625 66.21875 
Q 28.65625 66.21875 22.328125 58.203125 
Q 16.015625 50.203125 16.015625 36.375 
Q 16.015625 22.609375 22.328125 14.59375 
Q 28.65625 6.59375 39.40625 6.59375 
Q 50.140625 6.59375 56.421875 14.59375 
Q 62.703125 22.609375 62.703125 36.375 
Q 62.703125 50.203125 56.421875 58.203125 
Q 50.140625 66.21875 39.40625 66.21875 
z
M 39.40625 74.21875 
Q 54.734375 74.21875 63.90625 63.9375 
Q 73.09375 53.65625 73.09375 36.375 
Q 73.09375 19.140625 63.90625 8.859375 
Q 54.734375 -1.421875 39.40625 -1.421875 
Q 24.03125 -1.421875 14.8125 8.828125 
Q 5.609375 19.09375 5.609375 36.375 
Q 5.609375 53.65625 14.8125 63.9375 
Q 24.03125 74.21875 39.40625 74.21875 
z
" id="DejaVuSans-79"/>
      </defs>
      <g transform="translate(113.770312 320.599219)scale(0.1 -0.1)">
       <use xlink:href="#DejaVuSans-79"/>
       <use x="78.710938" xlink:href="#DejaVuSans-80"/>
       <use x="139.013672" xlink:href="#DejaVuSans-77"/>
      </g>
     </g>
    </g>
    <g id="ytick_7">
     <g id="line2d_36">
      <g>
       <use style="stroke:#000000;stroke-width:0.8;" x="143.3" xlink:href="#m9cdbefc3f8" y="305.2"/>
      </g>
     </g>
     <g id="text_11">
      <!-- Signor -->
      <defs>
       <path d="M 53.515625 70.515625 
L 53.515625 60.890625 
Q 47.90625 63.578125 42.921875 64.890625 
Q 37.9375 66.21875 33.296875 66.21875 
Q 25.25 66.21875 20.875 63.09375 
Q 16.5 59.96875 16.5 54.203125 
Q 16.5 49.359375 19.40625 46.890625 
Q 22.3125 44.4375 30.421875 42.921875 
L 36.375 41.703125 
Q 47.40625 39.59375 52.65625 34.296875 
Q 57.90625 29 57.90625 20.125 
Q 57.90625 9.515625 50.796875 4.046875 
Q 43.703125 -1.421875 29.984375 -1.421875 
Q 24.8125 -1.421875 18.96875 -0.25 
Q 13.140625 0.921875 6.890625 3.21875 
L 6.890625 13.375 
Q 12.890625 10.015625 18.65625 8.296875 
Q 24.421875 6.59375 29.984375 6.59375 
Q 38.421875 6.59375 43.015625 9.90625 
Q 47.609375 13.234375 47.609375 19.390625 
Q 47.609375 24.75 44.3125 27.78125 
Q 41.015625 30.8125 33.5 32.328125 
L 27.484375 33.5 
Q 16.453125 35.6875 11.515625 40.375 
Q 6.59375 45.0625 6.59375 53.421875 
Q 6.59375 63.09375 13.40625 68.65625 
Q 20.21875 74.21875 32.171875 74.21875 
Q 37.3125 74.21875 42.625 73.28125 
Q 47.953125 72.359375 53.515625 70.515625 
z
" id="DejaVuSans-83"/>
      </defs>
      <g transform="translate(104.257812 308.999219)scale(0.1 -0.1)">
       <use xlink:href="#DejaVuSans-83"/>
       <use x="63.476562" xlink:href="#DejaVuSans-105"/>
       <use x="91.259766" xlink:href="#DejaVuSans-103"/>
       <use x="154.736328" xlink:href="#DejaVuSans-110"/>
       <use x="218.115234" xlink:href="#DejaVuSans-111"/>
       <use x="279.296875" xlink:href="#DejaVuSans-114"/>
      </g>
     </g>
    </g>
    <g id="ytick_8">
     <g id="line2d_37">
      <g>
       <use style="stroke:#000000;stroke-width:0.8;" x="143.3" xlink:href="#m9cdbefc3f8" y="293.6"/>
      </g>
     </g>
     <g id="text_12">
      <!-- Zhong2015 -->
      <defs>
       <path d="M 5.609375 72.90625 
L 62.890625 72.90625 
L 62.890625 65.375 
L 16.796875 8.296875 
L 64.015625 8.296875 
L 64.015625 0 
L 4.5 0 
L 4.5 7.515625 
L 50.59375 64.59375 
L 5.609375 64.59375 
z
" id="DejaVuSans-90"/>
       <path d="M 10.796875 72.90625 
L 49.515625 72.90625 
L 49.515625 64.59375 
L 19.828125 64.59375 
L 19.828125 46.734375 
Q 21.96875 47.46875 24.109375 47.828125 
Q 26.265625 48.1875 28.421875 48.1875 
Q 40.625 48.1875 47.75 41.5 
Q 54.890625 34.8125 54.890625 23.390625 
Q 54.890625 11.625 47.5625 5.09375 
Q 40.234375 -1.421875 26.90625 -1.421875 
Q 22.3125 -1.421875 17.546875 -0.640625 
Q 12.796875 0.140625 7.71875 1.703125 
L 7.71875 11.625 
Q 12.109375 9.234375 16.796875 8.0625 
Q 21.484375 6.890625 26.703125 6.890625 
Q 35.15625 6.890625 40.078125 11.328125 
Q 45.015625 15.765625 45.015625 23.390625 
Q 45.015625 31 40.078125 35.4375 
Q 35.15625 39.890625 26.703125 39.890625 
Q 22.75 39.890625 18.8125 39.015625 
Q 14.890625 38.140625 10.796875 36.28125 
z
" id="DejaVuSans-53"/>
      </defs>
      <g transform="translate(78.857812 297.399219)scale(0.1 -0.1)">
       <use xlink:href="#DejaVuSans-90"/>
       <use x="68.505859" xlink:href="#DejaVuSans-104"/>
       <use x="131.884766" xlink:href="#DejaVuSans-111"/>
       <use x="193.066406" xlink:href="#DejaVuSans-110"/>
       <use x="256.445312" xlink:href="#DejaVuSans-103"/>
       <use x="319.921875" xlink:href="#DejaVuSans-50"/>
       <use x="383.544922" xlink:href="#DejaVuSans-48"/>
       <use x="447.167969" xlink:href="#DejaVuSans-49"/>
       <use x="510.791016" xlink:href="#DejaVuSans-53"/>
      </g>
     </g>
    </g>
    <g id="ytick_9">
     <g id="line2d_38">
      <g>
       <use style="stroke:#000000;stroke-width:0.8;" x="143.3" xlink:href="#m9cdbefc3f8" y="282"/>
      </g>
     </g>
     <g id="text_13">
      <!-- Guide2Pharma -->
      <defs>
       <path d="M 59.515625 10.40625 
L 59.515625 29.984375 
L 43.40625 29.984375 
L 43.40625 38.09375 
L 69.28125 38.09375 
L 69.28125 6.78125 
Q 63.578125 2.734375 56.6875 0.65625 
Q 49.8125 -1.421875 42 -1.421875 
Q 24.90625 -1.421875 15.25 8.5625 
Q 5.609375 18.5625 5.609375 36.375 
Q 5.609375 54.25 15.25 64.234375 
Q 24.90625 74.21875 42 74.21875 
Q 49.125 74.21875 55.546875 72.453125 
Q 61.96875 70.703125 67.390625 67.28125 
L 67.390625 56.78125 
Q 61.921875 61.421875 55.765625 63.765625 
Q 49.609375 66.109375 42.828125 66.109375 
Q 29.4375 66.109375 22.71875 58.640625 
Q 16.015625 51.171875 16.015625 36.375 
Q 16.015625 21.625 22.71875 14.15625 
Q 29.4375 6.6875 42.828125 6.6875 
Q 48.046875 6.6875 52.140625 7.59375 
Q 56.25 8.5 59.515625 10.40625 
z
" id="DejaVuSans-71"/>
      </defs>
      <g transform="translate(62.098437 285.799219)scale(0.1 -0.1)">
       <use xlink:href="#DejaVuSans-71"/>
       <use x="77.490234" xlink:href="#DejaVuSans-117"/>
       <use x="140.869141" xlink:href="#DejaVuSans-105"/>
       <use x="168.652344" xlink:href="#DejaVuSans-100"/>
       <use x="232.128906" xlink:href="#DejaVuSans-101"/>
       <use x="293.652344" xlink:href="#DejaVuSans-50"/>
       <use x="357.275391" xlink:href="#DejaVuSans-80"/>
       <use x="417.578125" xlink:href="#DejaVuSans-104"/>
       <use x="480.957031" xlink:href="#DejaVuSans-97"/>
       <use x="542.236328" xlink:href="#DejaVuSans-114"/>
       <use x="583.333984" xlink:href="#DejaVuSans-109"/>
       <use x="680.746094" xlink:href="#DejaVuSans-97"/>
      </g>
     </g>
    </g>
    <g id="ytick_10">
     <g id="line2d_39">
      <g>
       <use style="stroke:#000000;stroke-width:0.8;" x="143.3" xlink:href="#m9cdbefc3f8" y="270.4"/>
      </g>
     </g>
     <g id="text_14">
      <!-- HPMR -->
      <g transform="translate(107.173437 274.199219)scale(0.1 -0.1)">
       <use xlink:href="#DejaVuSans-72"/>
       <use x="75.195312" xlink:href="#DejaVuSans-80"/>
       <use x="135.498047" xlink:href="#DejaVuSans-77"/>
       <use x="221.777344" xlink:href="#DejaVuSans-82"/>
      </g>
     </g>
    </g>
    <g id="ytick_11">
     <g id="line2d_40">
      <g>
       <use style="stroke:#000000;stroke-width:0.8;" x="143.3" xlink:href="#m9cdbefc3f8" y="258.8"/>
      </g>
     </g>
     <g id="text_15">
      <!-- CPAD -->
      <g transform="translate(108.75625 262.599219)scale(0.1 -0.1)">
       <use xlink:href="#DejaVuSans-67"/>
       <use x="69.824219" xlink:href="#DejaVuSans-80"/>
       <use x="130.033203" xlink:href="#DejaVuSans-65"/>
       <use x="198.441406" xlink:href="#DejaVuSans-68"/>
      </g>
     </g>
    </g>
    <g id="ytick_12">
     <g id="line2d_41">
      <g>
       <use style="stroke:#000000;stroke-width:0.8;" x="143.3" xlink:href="#m9cdbefc3f8" y="247.2"/>
      </g>
     </g>
     <g id="text_16">
      <!-- Matrisome -->
      <g transform="translate(83.5125 250.999219)scale(0.1 -0.1)">
       <use xlink:href="#DejaVuSans-77"/>
       <use x="86.279297" xlink:href="#DejaVuSans-97"/>
       <use x="147.558594" xlink:href="#DejaVuSans-116"/>
       <use x="186.767578" xlink:href="#DejaVuSans-114"/>
       <use x="227.880859" xlink:href="#DejaVuSans-105"/>
       <use x="255.664062" xlink:href="#DejaVuSans-115"/>
       <use x="307.763672" xlink:href="#DejaVuSans-111"/>
       <use x="368.945312" xlink:href="#DejaVuSans-109"/>
       <use x="466.357422" xlink:href="#DejaVuSans-101"/>
      </g>
     </g>
    </g>
    <g id="ytick_13">
     <g id="line2d_42">
      <g>
       <use style="stroke:#000000;stroke-width:0.8;" x="143.3" xlink:href="#m9cdbefc3f8" y="235.6"/>
      </g>
     </g>
     <g id="text_17">
      <!-- TFcensus -->
      <defs>
       <path d="M -0.296875 72.90625 
L 61.375 72.90625 
L 61.375 64.59375 
L 35.5 64.59375 
L 35.5 0 
L 25.59375 0 
L 25.59375 64.59375 
L -0.296875 64.59375 
z
" id="DejaVuSans-84"/>
       <path d="M 9.8125 72.90625 
L 51.703125 72.90625 
L 51.703125 64.59375 
L 19.671875 64.59375 
L 19.671875 43.109375 
L 48.578125 43.109375 
L 48.578125 34.8125 
L 19.671875 34.8125 
L 19.671875 0 
L 9.8125 0 
z
" id="DejaVuSans-70"/>
      </defs>
      <g transform="translate(89.695312 239.399219)scale(0.1 -0.1)">
       <use xlink:href="#DejaVuSans-84"/>
       <use x="61.083984" xlink:href="#DejaVuSans-70"/>
       <use x="118.603516" xlink:href="#DejaVuSans-99"/>
       <use x="173.583984" xlink:href="#DejaVuSans-101"/>
       <use x="235.107422" xlink:href="#DejaVuSans-110"/>
       <use x="298.486328" xlink:href="#DejaVuSans-115"/>
       <use x="350.585938" xlink:href="#DejaVuSans-117"/>
       <use x="413.964844" xlink:href="#DejaVuSans-115"/>
      </g>
     </g>
    </g>
    <g id="ytick_14">
     <g id="line2d_43">
      <g>
       <use style="stroke:#000000;stroke-width:0.8;" x="143.3" xlink:href="#m9cdbefc3f8" y="224"/>
      </g>
     </g>
     <g id="text_18">
      <!-- CellPhoneDB -->
      <g transform="translate(72.070312 227.799219)scale(0.1 -0.1)">
       <use xlink:href="#DejaVuSans-67"/>
       <use x="69.824219" xlink:href="#DejaVuSans-101"/>
       <use x="131.347656" xlink:href="#DejaVuSans-108"/>
       <use x="159.130859" xlink:href="#DejaVuSans-108"/>
       <use x="186.914062" xlink:href="#DejaVuSans-80"/>
       <use x="247.216797" xlink:href="#DejaVuSans-104"/>
       <use x="310.595703" xlink:href="#DejaVuSans-111"/>
       <use x="371.777344" xlink:href="#DejaVuSans-110"/>
       <use x="435.15625" xlink:href="#DejaVuSans-101"/>
       <use x="496.679688" xlink:href="#DejaVuSans-68"/>
       <use x="573.681641" xlink:href="#DejaVuSans-66"/>
      </g>
     </g>
    </g>
    <g id="ytick_15">
     <g id="line2d_44">
      <g>
       <use style="stroke:#000000;stroke-width:0.8;" x="143.3" xlink:href="#m9cdbefc3f8" y="212.4"/>
      </g>
     </g>
     <g id="text_19">
      <!-- Ramilowski2015 -->
      <defs>
       <path d="M 4.203125 54.6875 
L 13.1875 54.6875 
L 24.421875 12.015625 
L 35.59375 54.6875 
L 46.1875 54.6875 
L 57.421875 12.015625 
L 68.609375 54.6875 
L 77.59375 54.6875 
L 63.28125 0 
L 52.6875 0 
L 40.921875 44.828125 
L 29.109375 0 
L 18.5 0 
z
" id="DejaVuSans-119"/>
       <path d="M 9.078125 75.984375 
L 18.109375 75.984375 
L 18.109375 31.109375 
L 44.921875 54.6875 
L 56.390625 54.6875 
L 27.390625 29.109375 
L 57.625 0 
L 45.90625 0 
L 18.109375 26.703125 
L 18.109375 0 
L 9.078125 0 
z
" id="DejaVuSans-107"/>
      </defs>
      <g transform="translate(54.404687 216.199219)scale(0.1 -0.1)">
       <use xlink:href="#DejaVuSans-82"/>
       <use x="69.451172" xlink:href="#DejaVuSans-97"/>
       <use x="130.730469" xlink:href="#DejaVuSans-109"/>
       <use x="228.142578" xlink:href="#DejaVuSans-105"/>
       <use x="255.925781" xlink:href="#DejaVuSans-108"/>
       <use x="283.708984" xlink:href="#DejaVuSans-111"/>
       <use x="344.890625" xlink:href="#DejaVuSans-119"/>
       <use x="426.677734" xlink:href="#DejaVuSans-115"/>
       <use x="478.777344" xlink:href="#DejaVuSans-107"/>
       <use x="536.6875" xlink:href="#DejaVuSans-105"/>
       <use x="564.470703" xlink:href="#DejaVuSans-50"/>
       <use x="628.09375" xlink:href="#DejaVuSans-48"/>
       <use x="691.716797" xlink:href="#DejaVuSans-49"/>
       <use x="755.339844" xlink:href="#DejaVuSans-53"/>
      </g>
     </g>
    </g>
    <g id="ytick_16">
     <g id="line2d_45">
      <g>
       <use style="stroke:#000000;stroke-width:0.8;" x="143.3" xlink:href="#m9cdbefc3f8" y="200.8"/>
      </g>
     </g>
     <g id="text_20">
      <!-- TopDB -->
      <g transform="translate(103.190625 204.599219)scale(0.1 -0.1)">
       <use xlink:href="#DejaVuSans-84"/>
       <use x="60.818359" xlink:href="#DejaVuSans-111"/>
       <use x="122" xlink:href="#DejaVuSans-112"/>
       <use x="185.476562" xlink:href="#DejaVuSans-68"/>
       <use x="262.478516" xlink:href="#DejaVuSans-66"/>
      </g>
     </g>
    </g>
    <g id="ytick_17">
     <g id="line2d_46">
      <g>
       <use style="stroke:#000000;stroke-width:0.8;" x="143.3" xlink:href="#m9cdbefc3f8" y="189.2"/>
      </g>
     </g>
     <g id="text_21">
      <!-- CSPA -->
      <g transform="translate(110.107812 192.999219)scale(0.1 -0.1)">
       <use xlink:href="#DejaVuSans-67"/>
       <use x="69.824219" xlink:href="#DejaVuSans-83"/>
       <use x="133.300781" xlink:href="#DejaVuSans-80"/>
       <use x="193.509766" xlink:href="#DejaVuSans-65"/>
      </g>
     </g>
    </g>
    <g id="ytick_18">
     <g id="line2d_47">
      <g>
       <use style="stroke:#000000;stroke-width:0.8;" x="143.3" xlink:href="#m9cdbefc3f8" y="177.6"/>
      </g>
     </g>
     <g id="text_22">
      <!-- CORUM_GO -->
      <defs>
       <path d="M 8.6875 72.90625 
L 18.609375 72.90625 
L 18.609375 28.609375 
Q 18.609375 16.890625 22.84375 11.734375 
Q 27.09375 6.59375 36.625 6.59375 
Q 46.09375 6.59375 50.34375 11.734375 
Q 54.59375 16.890625 54.59375 28.609375 
L 54.59375 72.90625 
L 64.5 72.90625 
L 64.5 27.390625 
Q 64.5 13.140625 57.4375 5.859375 
Q 50.390625 -1.421875 36.625 -1.421875 
Q 22.796875 -1.421875 15.734375 5.859375 
Q 8.6875 13.140625 8.6875 27.390625 
z
" id="DejaVuSans-85"/>
      </defs>
      <g transform="translate(77.929687 181.310938)scale(0.1 -0.1)">
       <use xlink:href="#DejaVuSans-67"/>
       <use x="69.824219" xlink:href="#DejaVuSans-79"/>
       <use x="148.535156" xlink:href="#DejaVuSans-82"/>
       <use x="218.017578" xlink:href="#DejaVuSans-85"/>
       <use x="291.210938" xlink:href="#DejaVuSans-77"/>
       <use x="377.490234" xlink:href="#DejaVuSans-95"/>
       <use x="427.490234" xlink:href="#DejaVuSans-71"/>
       <use x="504.980469" xlink:href="#DejaVuSans-79"/>
      </g>
     </g>
    </g>
    <g id="ytick_19">
     <g id="line2d_48">
      <g>
       <use style="stroke:#000000;stroke-width:0.8;" x="143.3" xlink:href="#m9cdbefc3f8" y="166"/>
      </g>
     </g>
     <g id="text_23">
      <!-- CORUM_Funcat -->
      <g transform="translate(59.584375 169.710938)scale(0.1 -0.1)">
       <use xlink:href="#DejaVuSans-67"/>
       <use x="69.824219" xlink:href="#DejaVuSans-79"/>
       <use x="148.535156" xlink:href="#DejaVuSans-82"/>
       <use x="218.017578" xlink:href="#DejaVuSans-85"/>
       <use x="291.210938" xlink:href="#DejaVuSans-77"/>
       <use x="377.490234" xlink:href="#DejaVuSans-95"/>
       <use x="427.490234" xlink:href="#DejaVuSans-70"/>
       <use x="484.931641" xlink:href="#DejaVuSans-117"/>
       <use x="548.310547" xlink:href="#DejaVuSans-110"/>
       <use x="611.689453" xlink:href="#DejaVuSans-99"/>
       <use x="666.669922" xlink:href="#DejaVuSans-97"/>
       <use x="727.949219" xlink:href="#DejaVuSans-116"/>
      </g>
     </g>
    </g>
    <g id="ytick_20">
     <g id="line2d_49">
      <g>
       <use style="stroke:#000000;stroke-width:0.8;" x="143.3" xlink:href="#m9cdbefc3f8" y="154.4"/>
      </g>
     </g>
     <g id="text_24">
      <!-- Membranome -->
      <g transform="translate(66.840625 158.199219)scale(0.1 -0.1)">
       <use xlink:href="#DejaVuSans-77"/>
       <use x="86.279297" xlink:href="#DejaVuSans-101"/>
       <use x="147.802734" xlink:href="#DejaVuSans-109"/>
       <use x="245.214844" xlink:href="#DejaVuSans-98"/>
       <use x="308.691406" xlink:href="#DejaVuSans-114"/>
       <use x="349.804688" xlink:href="#DejaVuSans-97"/>
       <use x="411.083984" xlink:href="#DejaVuSans-110"/>
       <use x="474.462891" xlink:href="#DejaVuSans-111"/>
       <use x="535.644531" xlink:href="#DejaVuSans-109"/>
       <use x="633.056641" xlink:href="#DejaVuSans-101"/>
      </g>
     </g>
    </g>
    <g id="ytick_21">
     <g id="line2d_50">
      <g>
       <use style="stroke:#000000;stroke-width:0.8;" x="143.3" xlink:href="#m9cdbefc3f8" y="142.8"/>
      </g>
     </g>
     <g id="text_25">
      <!-- NetPath -->
      <g transform="translate(96.335937 146.599219)scale(0.1 -0.1)">
       <use xlink:href="#DejaVuSans-78"/>
       <use x="74.804688" xlink:href="#DejaVuSans-101"/>
       <use x="136.328125" xlink:href="#DejaVuSans-116"/>
       <use x="175.537109" xlink:href="#DejaVuSans-80"/>
       <use x="235.777344" xlink:href="#DejaVuSans-97"/>
       <use x="297.056641" xlink:href="#DejaVuSans-116"/>
       <use x="336.265625" xlink:href="#DejaVuSans-104"/>
      </g>
     </g>
    </g>
    <g id="ytick_22">
     <g id="line2d_51">
      <g>
       <use style="stroke:#000000;stroke-width:0.8;" x="143.3" xlink:href="#m9cdbefc3f8" y="131.2"/>
      </g>
     </g>
     <g id="text_26">
      <!-- Surfaceome -->
      <g transform="translate(76.190625 134.999219)scale(0.1 -0.1)">
       <use xlink:href="#DejaVuSans-83"/>
       <use x="63.476562" xlink:href="#DejaVuSans-117"/>
       <use x="126.855469" xlink:href="#DejaVuSans-114"/>
       <use x="167.96875" xlink:href="#DejaVuSans-102"/>
       <use x="203.173828" xlink:href="#DejaVuSans-97"/>
       <use x="264.453125" xlink:href="#DejaVuSans-99"/>
       <use x="319.433594" xlink:href="#DejaVuSans-101"/>
       <use x="380.957031" xlink:href="#DejaVuSans-111"/>
       <use x="442.138672" xlink:href="#DejaVuSans-109"/>
       <use x="539.550781" xlink:href="#DejaVuSans-101"/>
      </g>
     </g>
    </g>
    <g id="ytick_23">
     <g id="line2d_52">
      <g>
       <use style="stroke:#000000;stroke-width:0.8;" x="143.3" xlink:href="#m9cdbefc3f8" y="119.6"/>
      </g>
     </g>
     <g id="text_27">
      <!-- SignaLink3 -->
      <defs>
       <path d="M 9.8125 72.90625 
L 19.671875 72.90625 
L 19.671875 8.296875 
L 55.171875 8.296875 
L 55.171875 0 
L 9.8125 0 
z
" id="DejaVuSans-76"/>
      </defs>
      <g transform="translate(81.51875 123.399219)scale(0.1 -0.1)">
       <use xlink:href="#DejaVuSans-83"/>
       <use x="63.476562" xlink:href="#DejaVuSans-105"/>
       <use x="91.259766" xlink:href="#DejaVuSans-103"/>
       <use x="154.736328" xlink:href="#DejaVuSans-110"/>
       <use x="218.115234" xlink:href="#DejaVuSans-97"/>
       <use x="279.394531" xlink:href="#DejaVuSans-76"/>
       <use x="335.107422" xlink:href="#DejaVuSans-105"/>
       <use x="362.890625" xlink:href="#DejaVuSans-110"/>
       <use x="426.269531" xlink:href="#DejaVuSans-107"/>
       <use x="484.179688" xlink:href="#DejaVuSans-51"/>
      </g>
     </g>
    </g>
    <g id="ytick_24">
     <g id="line2d_53">
      <g>
       <use style="stroke:#000000;stroke-width:0.8;" x="143.3" xlink:href="#m9cdbefc3f8" y="108"/>
      </g>
     </g>
     <g id="text_28">
      <!-- KEGG -->
      <defs>
       <path d="M 9.8125 72.90625 
L 19.671875 72.90625 
L 19.671875 42.09375 
L 52.390625 72.90625 
L 65.09375 72.90625 
L 28.90625 38.921875 
L 67.671875 0 
L 54.6875 0 
L 19.671875 35.109375 
L 19.671875 0 
L 9.8125 0 
z
" id="DejaVuSans-75"/>
       <path d="M 9.8125 72.90625 
L 55.90625 72.90625 
L 55.90625 64.59375 
L 19.671875 64.59375 
L 19.671875 43.015625 
L 54.390625 43.015625 
L 54.390625 34.71875 
L 19.671875 34.71875 
L 19.671875 8.296875 
L 56.78125 8.296875 
L 56.78125 0 
L 9.8125 0 
z
" id="DejaVuSans-69"/>
      </defs>
      <g transform="translate(107.926562 111.799219)scale(0.1 -0.1)">
       <use xlink:href="#DejaVuSans-75"/>
       <use x="65.576172" xlink:href="#DejaVuSans-69"/>
       <use x="128.759766" xlink:href="#DejaVuSans-71"/>
       <use x="206.25" xlink:href="#DejaVuSans-71"/>
      </g>
     </g>
    </g>
    <g id="ytick_25">
     <g id="line2d_54">
      <g>
       <use style="stroke:#000000;stroke-width:0.8;" x="143.3" xlink:href="#m9cdbefc3f8" y="96.4"/>
      </g>
     </g>
     <g id="text_29">
      <!-- Exocarta -->
      <g transform="translate(92.1625 100.199219)scale(0.1 -0.1)">
       <use xlink:href="#DejaVuSans-69"/>
       <use x="63.183594" xlink:href="#DejaVuSans-120"/>
       <use x="122.316406" xlink:href="#DejaVuSans-111"/>
       <use x="183.498047" xlink:href="#DejaVuSans-99"/>
       <use x="238.478516" xlink:href="#DejaVuSans-97"/>
       <use x="299.757812" xlink:href="#DejaVuSans-114"/>
       <use x="340.871094" xlink:href="#DejaVuSans-116"/>
       <use x="380.080078" xlink:href="#DejaVuSans-97"/>
      </g>
     </g>
    </g>
    <g id="ytick_26">
     <g id="line2d_55">
      <g>
       <use style="stroke:#000000;stroke-width:0.8;" x="143.3" xlink:href="#m9cdbefc3f8" y="84.8"/>
      </g>
     </g>
     <g id="text_30">
      <!-- MatrixDB -->
      <g transform="translate(90.254687 88.599219)scale(0.1 -0.1)">
       <use xlink:href="#DejaVuSans-77"/>
       <use x="86.279297" xlink:href="#DejaVuSans-97"/>
       <use x="147.558594" xlink:href="#DejaVuSans-116"/>
       <use x="186.767578" xlink:href="#DejaVuSans-114"/>
       <use x="227.880859" xlink:href="#DejaVuSans-105"/>
       <use x="255.664062" xlink:href="#DejaVuSans-120"/>
       <use x="314.84375" xlink:href="#DejaVuSans-68"/>
       <use x="391.845703" xlink:href="#DejaVuSans-66"/>
      </g>
     </g>
    </g>
    <g id="ytick_27">
     <g id="line2d_56">
      <g>
       <use style="stroke:#000000;stroke-width:0.8;" x="143.3" xlink:href="#m9cdbefc3f8" y="73.2"/>
      </g>
     </g>
     <g id="text_31">
      <!-- GO_Intercell -->
      <g transform="translate(75.003125 76.999219)scale(0.1 -0.1)">
       <use xlink:href="#DejaVuSans-71"/>
       <use x="77.490234" xlink:href="#DejaVuSans-79"/>
       <use x="156.201172" xlink:href="#DejaVuSans-95"/>
       <use x="206.201172" xlink:href="#DejaVuSans-73"/>
       <use x="235.693359" xlink:href="#DejaVuSans-110"/>
       <use x="299.072266" xlink:href="#DejaVuSans-116"/>
       <use x="338.28125" xlink:href="#DejaVuSans-101"/>
       <use x="399.804688" xlink:href="#DejaVuSans-114"/>
       <use x="440.886719" xlink:href="#DejaVuSans-99"/>
       <use x="495.867188" xlink:href="#DejaVuSans-101"/>
       <use x="557.390625" xlink:href="#DejaVuSans-108"/>
       <use x="585.173828" xlink:href="#DejaVuSans-108"/>
      </g>
     </g>
    </g>
    <g id="ytick_28">
     <g id="line2d_57">
      <g>
       <use style="stroke:#000000;stroke-width:0.8;" x="143.3" xlink:href="#m9cdbefc3f8" y="61.6"/>
      </g>
     </g>
     <g id="text_32">
      <!-- HGNC -->
      <g transform="translate(106.567187 65.399219)scale(0.1 -0.1)">
       <use xlink:href="#DejaVuSans-72"/>
       <use x="75.195312" xlink:href="#DejaVuSans-71"/>
       <use x="152.685547" xlink:href="#DejaVuSans-78"/>
       <use x="227.490234" xlink:href="#DejaVuSans-67"/>
      </g>
     </g>
    </g>
    <g id="ytick_29">
     <g id="line2d_58">
      <g>
       <use style="stroke:#000000;stroke-width:0.8;" x="143.3" xlink:href="#m9cdbefc3f8" y="50"/>
      </g>
     </g>
     <g id="text_33">
      <!-- Vesiclepedia -->
      <defs>
       <path d="M 28.609375 0 
L 0.78125 72.90625 
L 11.078125 72.90625 
L 34.1875 11.53125 
L 57.328125 72.90625 
L 67.578125 72.90625 
L 39.796875 0 
z
" id="DejaVuSans-86"/>
      </defs>
      <g transform="translate(73.14375 53.799219)scale(0.1 -0.1)">
       <use xlink:href="#DejaVuSans-86"/>
       <use x="68.298828" xlink:href="#DejaVuSans-101"/>
       <use x="129.822266" xlink:href="#DejaVuSans-115"/>
       <use x="181.921875" xlink:href="#DejaVuSans-105"/>
       <use x="209.705078" xlink:href="#DejaVuSans-99"/>
       <use x="264.685547" xlink:href="#DejaVuSans-108"/>
       <use x="292.46875" xlink:href="#DejaVuSans-101"/>
       <use x="353.992188" xlink:href="#DejaVuSans-112"/>
       <use x="417.46875" xlink:href="#DejaVuSans-101"/>
       <use x="478.992188" xlink:href="#DejaVuSans-100"/>
       <use x="542.46875" xlink:href="#DejaVuSans-105"/>
       <use x="570.251953" xlink:href="#DejaVuSans-97"/>
      </g>
     </g>
    </g>
    <g id="ytick_30">
     <g id="line2d_59">
      <g>
       <use style="stroke:#000000;stroke-width:0.8;" x="143.3" xlink:href="#m9cdbefc3f8" y="38.4"/>
      </g>
     </g>
     <g id="text_34">
      <!-- Ramilowski_location -->
      <g transform="translate(35.176562 42.199219)scale(0.1 -0.1)">
       <use xlink:href="#DejaVuSans-82"/>
       <use x="69.451172" xlink:href="#DejaVuSans-97"/>
       <use x="130.730469" xlink:href="#DejaVuSans-109"/>
       <use x="228.142578" xlink:href="#DejaVuSans-105"/>
       <use x="255.925781" xlink:href="#DejaVuSans-108"/>
       <use x="283.708984" xlink:href="#DejaVuSans-111"/>
       <use x="344.890625" xlink:href="#DejaVuSans-119"/>
       <use x="426.677734" xlink:href="#DejaVuSans-115"/>
       <use x="478.777344" xlink:href="#DejaVuSans-107"/>
       <use x="536.6875" xlink:href="#DejaVuSans-105"/>
       <use x="564.470703" xlink:href="#DejaVuSans-95"/>
       <use x="614.470703" xlink:href="#DejaVuSans-108"/>
       <use x="642.253906" xlink:href="#DejaVuSans-111"/>
       <use x="703.435547" xlink:href="#DejaVuSans-99"/>
       <use x="758.416016" xlink:href="#DejaVuSans-97"/>
       <use x="819.695312" xlink:href="#DejaVuSans-116"/>
       <use x="858.904297" xlink:href="#DejaVuSans-105"/>
       <use x="886.6875" xlink:href="#DejaVuSans-111"/>
       <use x="947.869141" xlink:href="#DejaVuSans-110"/>
      </g>
     </g>
    </g>
    <g id="text_35">
     <!-- Resource -->
     <g transform="translate(18.435937 229.860156)rotate(-90)scale(0.1 -0.1)">
      <use xlink:href="#DejaVuSans-82"/>
      <use x="69.419922" xlink:href="#DejaVuSans-101"/>
      <use x="130.943359" xlink:href="#DejaVuSans-115"/>
      <use x="183.042969" xlink:href="#DejaVuSans-111"/>
      <use x="244.224609" xlink:href="#DejaVuSans-117"/>
      <use x="307.603516" xlink:href="#DejaVuSans-114"/>
      <use x="348.685547" xlink:href="#DejaVuSans-99"/>
      <use x="403.666016" xlink:href="#DejaVuSans-101"/>
     </g>
    </g>
   </g>
   <g id="patch_33">
    <path d="M 143.3 386.4 
L 143.3 26.8 
" style="fill:none;stroke:#000000;stroke-linecap:square;stroke-linejoin:miter;stroke-width:0.8;"/>
   </g>
   <g id="patch_34">
    <path d="M 493.2 386.4 
L 493.2 26.8 
" style="fill:none;stroke:#000000;stroke-linecap:square;stroke-linejoin:miter;stroke-width:0.8;"/>
   </g>
   <g id="patch_35">
    <path d="M 143.3 386.4 
L 493.2 386.4 
" style="fill:none;stroke:#000000;stroke-linecap:square;stroke-linejoin:miter;stroke-width:0.8;"/>
   </g>
   <g id="patch_36">
    <path d="M 143.3 26.8 
L 493.2 26.8 
" style="fill:none;stroke:#000000;stroke-linecap:square;stroke-linejoin:miter;stroke-width:0.8;"/>
   </g>
   <g id="text_36">
    <!-- Proteins/complexes by resource -->
    <defs>
     <path d="M 32.171875 -5.078125 
Q 28.375 -14.84375 24.75 -17.8125 
Q 21.140625 -20.796875 15.09375 -20.796875 
L 7.90625 -20.796875 
L 7.90625 -13.28125 
L 13.1875 -13.28125 
Q 16.890625 -13.28125 18.9375 -11.515625 
Q 21 -9.765625 23.484375 -3.21875 
L 25.09375 0.875 
L 2.984375 54.6875 
L 12.5 54.6875 
L 29.59375 11.921875 
L 46.6875 54.6875 
L 56.203125 54.6875 
z
" id="DejaVuSans-121"/>
    </defs>
    <g transform="translate(222.10375 20.8)scale(0.12 -0.12)">
     <use xlink:href="#DejaVuSans-80"/>
     <use x="60.287109" xlink:href="#DejaVuSans-114"/>
     <use x="101.369141" xlink:href="#DejaVuSans-111"/>
     <use x="162.550781" xlink:href="#DejaVuSans-116"/>
     <use x="201.759766" xlink:href="#DejaVuSans-101"/>
     <use x="263.283203" xlink:href="#DejaVuSans-105"/>
     <use x="291.066406" xlink:href="#DejaVuSans-110"/>
     <use x="354.445312" xlink:href="#DejaVuSans-115"/>
     <use x="406.544922" xlink:href="#DejaVuSans-47"/>
     <use x="440.236328" xlink:href="#DejaVuSans-99"/>
     <use x="495.216797" xlink:href="#DejaVuSans-111"/>
     <use x="556.398438" xlink:href="#DejaVuSans-109"/>
     <use x="653.810547" xlink:href="#DejaVuSans-112"/>
     <use x="717.287109" xlink:href="#DejaVuSans-108"/>
     <use x="745.070312" xlink:href="#DejaVuSans-101"/>
     <use x="806.578125" xlink:href="#DejaVuSans-120"/>
     <use x="865.710938" xlink:href="#DejaVuSans-101"/>
     <use x="927.234375" xlink:href="#DejaVuSans-115"/>
     <use x="979.333984" xlink:href="#DejaVuSans-32"/>
     <use x="1011.121094" xlink:href="#DejaVuSans-98"/>
     <use x="1074.597656" xlink:href="#DejaVuSans-121"/>
     <use x="1133.777344" xlink:href="#DejaVuSans-32"/>
     <use x="1165.564453" xlink:href="#DejaVuSans-114"/>
     <use x="1206.646484" xlink:href="#DejaVuSans-101"/>
     <use x="1268.169922" xlink:href="#DejaVuSans-115"/>
     <use x="1320.269531" xlink:href="#DejaVuSans-111"/>
     <use x="1381.451172" xlink:href="#DejaVuSans-117"/>
     <use x="1444.830078" xlink:href="#DejaVuSans-114"/>
     <use x="1485.912109" xlink:href="#DejaVuSans-99"/>
     <use x="1540.892578" xlink:href="#DejaVuSans-101"/>
    </g>
   </g>
  </g>
 </g>
 <defs>
  <clipPath id="p5247e0b746">
   <rect height="359.6" width="349.9" x="143.3" y="26.8"/>
  </clipPath>
 </defs>
</svg>
