<?xml version="1.0" encoding="utf-8" standalone="no"?>
<!DOCTYPE svg PUBLIC "-//W3C//DTD SVG 1.1//EN"
  "http://www.w3.org/Graphics/SVG/1.1/DTD/svg11.dtd">
<!-- Created with matplotlib (https://matplotlib.org/) -->
<svg height="288pt" version="1.1" viewBox="0 0 432 288" width="432pt" xmlns="http://www.w3.org/2000/svg" xmlns:xlink="http://www.w3.org/1999/xlink">
 <defs>
  <style type="text/css">
*{stroke-linecap:butt;stroke-linejoin:round;white-space:pre;}
  </style>
 </defs>
 <g id="figure_1">
  <g id="patch_1">
   <path d="M 0 288 
L 432 288 
L 432 0 
L 0 0 
z
" style="fill:#ffffff;"/>
  </g>
  <g id="axes_1">
   <g id="patch_2">
    <path d="M 57.05 246.2 
L 421.2 246.2 
L 421.2 26.8 
L 57.05 26.8 
z
" style="fill:#ffffff;"/>
   </g>
   <g id="patch_3">
    <path clip-path="url(#pb3d3e7d6aa)" d="M 59.084358 246.2 
L 62.705514 246.2 
L 62.705514 116.457934 
L 59.084358 116.457934 
z
" style="fill:#00549f;"/>
   </g>
   <g id="patch_4">
    <path clip-path="url(#pb3d3e7d6aa)" d="M 62.705514 246.2 
L 66.32667 246.2 
L 66.32667 58.142857 
L 62.705514 58.142857 
z
" style="fill:#00549f;"/>
   </g>
   <g id="patch_5">
    <path clip-path="url(#pb3d3e7d6aa)" d="M 66.32667 246.2 
L 69.947827 246.2 
L 69.947827 67.842079 
L 66.32667 67.842079 
z
" style="fill:#00549f;"/>
   </g>
   <g id="patch_6">
    <path clip-path="url(#pb3d3e7d6aa)" d="M 69.947827 246.2 
L 73.568983 246.2 
L 73.568983 37.247619 
L 69.947827 37.247619 
z
" style="fill:#00549f;"/>
   </g>
   <g id="patch_7">
    <path clip-path="url(#pb3d3e7d6aa)" d="M 73.568983 246.2 
L 77.19014 246.2 
L 77.19014 144.298294 
L 73.568983 144.298294 
z
" style="fill:#00549f;"/>
   </g>
   <g id="patch_8">
    <path clip-path="url(#pb3d3e7d6aa)" d="M 77.19014 246.2 
L 80.811296 246.2 
L 80.811296 56.885551 
L 77.19014 56.885551 
z
" style="fill:#00549f;"/>
   </g>
   <g id="patch_9">
    <path clip-path="url(#pb3d3e7d6aa)" d="M 80.811296 246.2 
L 84.432453 246.2 
L 84.432453 58.442216 
L 80.811296 58.442216 
z
" style="fill:#00549f;"/>
   </g>
   <g id="patch_10">
    <path clip-path="url(#pb3d3e7d6aa)" d="M 84.432453 246.2 
L 88.053609 246.2 
L 88.053609 96.221285 
L 84.432453 96.221285 
z
" style="fill:#00549f;"/>
   </g>
   <g id="patch_11">
    <path clip-path="url(#pb3d3e7d6aa)" d="M 88.053609 246.2 
L 91.674765 246.2 
L 91.674765 119.271906 
L 88.053609 119.271906 
z
" style="fill:#00549f;"/>
   </g>
   <g id="patch_12">
    <path clip-path="url(#pb3d3e7d6aa)" d="M 91.674765 246.2 
L 95.295922 246.2 
L 95.295922 191.716714 
L 91.674765 191.716714 
z
" style="fill:#00549f;"/>
   </g>
   <g id="patch_13">
    <path clip-path="url(#pb3d3e7d6aa)" d="M 95.295922 246.2 
L 98.917078 246.2 
L 98.917078 154.296875 
L 95.295922 154.296875 
z
" style="fill:#00549f;"/>
   </g>
   <g id="patch_14">
    <path clip-path="url(#pb3d3e7d6aa)" d="M 98.917078 246.2 
L 102.538235 246.2 
L 102.538235 166.630454 
L 98.917078 166.630454 
z
" style="fill:#00549f;"/>
   </g>
   <g id="patch_15">
    <path clip-path="url(#pb3d3e7d6aa)" d="M 102.538235 246.2 
L 106.159391 246.2 
L 106.159391 183.035312 
L 102.538235 183.035312 
z
" style="fill:#00549f;"/>
   </g>
   <g id="patch_16">
    <path clip-path="url(#pb3d3e7d6aa)" d="M 106.159391 246.2 
L 109.780547 246.2 
L 109.780547 218.838614 
L 106.159391 218.838614 
z
" style="fill:#00549f;"/>
   </g>
   <g id="patch_17">
    <path clip-path="url(#pb3d3e7d6aa)" d="M 109.780547 246.2 
L 113.401704 246.2 
L 113.401704 199.559913 
L 109.780547 199.559913 
z
" style="fill:#00549f;"/>
   </g>
   <g id="patch_18">
    <path clip-path="url(#pb3d3e7d6aa)" d="M 113.401704 246.2 
L 117.02286 246.2 
L 117.02286 208.660418 
L 113.401704 208.660418 
z
" style="fill:#00549f;"/>
   </g>
   <g id="patch_19">
    <path clip-path="url(#pb3d3e7d6aa)" d="M 117.02286 246.2 
L 120.644017 246.2 
L 120.644017 215.725283 
L 117.02286 215.725283 
z
" style="fill:#00549f;"/>
   </g>
   <g id="patch_20">
    <path clip-path="url(#pb3d3e7d6aa)" d="M 120.644017 246.2 
L 124.265173 246.2 
L 124.265173 219.796562 
L 120.644017 219.796562 
z
" style="fill:#00549f;"/>
   </g>
   <g id="patch_21">
    <path clip-path="url(#pb3d3e7d6aa)" d="M 124.265173 246.2 
L 127.88633 246.2 
L 127.88633 234.644754 
L 124.265173 234.644754 
z
" style="fill:#00549f;"/>
   </g>
   <g id="patch_22">
    <path clip-path="url(#pb3d3e7d6aa)" d="M 127.88633 246.2 
L 131.507486 246.2 
L 131.507486 225.304762 
L 127.88633 225.304762 
z
" style="fill:#00549f;"/>
   </g>
   <g id="patch_23">
    <path clip-path="url(#pb3d3e7d6aa)" d="M 131.507486 246.2 
L 135.128642 246.2 
L 135.128642 231.351808 
L 131.507486 231.351808 
z
" style="fill:#00549f;"/>
   </g>
   <g id="patch_24">
    <path clip-path="url(#pb3d3e7d6aa)" d="M 135.128642 246.2 
L 138.749799 246.2 
L 138.749799 234.884241 
L 135.128642 234.884241 
z
" style="fill:#00549f;"/>
   </g>
   <g id="patch_25">
    <path clip-path="url(#pb3d3e7d6aa)" d="M 138.749799 246.2 
L 142.370955 246.2 
L 142.370955 239.67398 
L 138.749799 239.67398 
z
" style="fill:#00549f;"/>
   </g>
   <g id="patch_26">
    <path clip-path="url(#pb3d3e7d6aa)" d="M 142.370955 246.2 
L 145.992112 246.2 
L 145.992112 235.54283 
L 142.370955 235.54283 
z
" style="fill:#00549f;"/>
   </g>
   <g id="patch_27">
    <path clip-path="url(#pb3d3e7d6aa)" d="M 145.992112 246.2 
L 149.613268 246.2 
L 149.613268 238.65616 
L 145.992112 238.65616 
z
" style="fill:#00549f;"/>
   </g>
   <g id="patch_28">
    <path clip-path="url(#pb3d3e7d6aa)" d="M 149.613268 246.2 
L 153.234425 246.2 
L 153.234425 238.117315 
L 149.613268 238.117315 
z
" style="fill:#00549f;"/>
   </g>
   <g id="patch_29">
    <path clip-path="url(#pb3d3e7d6aa)" d="M 153.234425 246.2 
L 156.855581 246.2 
L 156.855581 240.212826 
L 153.234425 240.212826 
z
" style="fill:#00549f;"/>
   </g>
   <g id="patch_30">
    <path clip-path="url(#pb3d3e7d6aa)" d="M 156.855581 246.2 
L 160.476737 246.2 
L 160.476737 242.727439 
L 156.855581 242.727439 
z
" style="fill:#00549f;"/>
   </g>
   <g id="patch_31">
    <path clip-path="url(#pb3d3e7d6aa)" d="M 160.476737 246.2 
L 164.097894 246.2 
L 164.097894 240.931287 
L 160.476737 240.931287 
z
" style="fill:#00549f;"/>
   </g>
   <g id="patch_32">
    <path clip-path="url(#pb3d3e7d6aa)" d="M 164.097894 246.2 
L 167.71905 246.2 
L 167.71905 242.368208 
L 164.097894 242.368208 
z
" style="fill:#00549f;"/>
   </g>
   <g id="patch_33">
    <path clip-path="url(#pb3d3e7d6aa)" d="M 167.71905 246.2 
L 171.340207 246.2 
L 171.340207 242.547824 
L 167.71905 242.547824 
z
" style="fill:#00549f;"/>
   </g>
   <g id="patch_34">
    <path clip-path="url(#pb3d3e7d6aa)" d="M 171.340207 246.2 
L 174.961363 246.2 
L 174.961363 244.284104 
L 171.340207 244.284104 
z
" style="fill:#00549f;"/>
   </g>
   <g id="patch_35">
    <path clip-path="url(#pb3d3e7d6aa)" d="M 174.961363 246.2 
L 178.58252 246.2 
L 178.58252 242.907054 
L 174.961363 242.907054 
z
" style="fill:#00549f;"/>
   </g>
   <g id="patch_36">
    <path clip-path="url(#pb3d3e7d6aa)" d="M 178.58252 246.2 
L 182.203676 246.2 
L 182.203676 243.206413 
L 178.58252 243.206413 
z
" style="fill:#00549f;"/>
   </g>
   <g id="patch_37">
    <path clip-path="url(#pb3d3e7d6aa)" d="M 182.203676 246.2 
L 185.824832 246.2 
L 185.824832 243.685387 
L 182.203676 243.685387 
z
" style="fill:#00549f;"/>
   </g>
   <g id="patch_38">
    <path clip-path="url(#pb3d3e7d6aa)" d="M 185.824832 246.2 
L 189.445989 246.2 
L 189.445989 244.224233 
L 185.824832 244.224233 
z
" style="fill:#00549f;"/>
   </g>
   <g id="patch_39">
    <path clip-path="url(#pb3d3e7d6aa)" d="M 189.445989 246.2 
L 193.067145 246.2 
L 193.067145 245.301924 
L 189.445989 245.301924 
z
" style="fill:#00549f;"/>
   </g>
   <g id="patch_40">
    <path clip-path="url(#pb3d3e7d6aa)" d="M 193.067145 246.2 
L 196.688302 246.2 
L 196.688302 244.703206 
L 193.067145 244.703206 
z
" style="fill:#00549f;"/>
   </g>
   <g id="patch_41">
    <path clip-path="url(#pb3d3e7d6aa)" d="M 196.688302 246.2 
L 200.309458 246.2 
L 200.309458 245.18218 
L 196.688302 245.18218 
z
" style="fill:#00549f;"/>
   </g>
   <g id="patch_42">
    <path clip-path="url(#pb3d3e7d6aa)" d="M 200.309458 246.2 
L 203.930615 246.2 
L 203.930615 244.882822 
L 200.309458 244.882822 
z
" style="fill:#00549f;"/>
   </g>
   <g id="patch_43">
    <path clip-path="url(#pb3d3e7d6aa)" d="M 203.930615 246.2 
L 207.551771 246.2 
L 207.551771 245.601283 
L 203.930615 245.601283 
z
" style="fill:#00549f;"/>
   </g>
   <g id="patch_44">
    <path clip-path="url(#pb3d3e7d6aa)" d="M 207.551771 246.2 
L 211.172927 246.2 
L 211.172927 245.421667 
L 207.551771 245.421667 
z
" style="fill:#00549f;"/>
   </g>
   <g id="patch_45">
    <path clip-path="url(#pb3d3e7d6aa)" d="M 211.172927 246.2 
L 214.794084 246.2 
L 214.794084 245.541411 
L 211.172927 245.541411 
z
" style="fill:#00549f;"/>
   </g>
   <g id="patch_46">
    <path clip-path="url(#pb3d3e7d6aa)" d="M 214.794084 246.2 
L 218.41524 246.2 
L 218.41524 245.122309 
L 214.794084 245.122309 
z
" style="fill:#00549f;"/>
   </g>
   <g id="patch_47">
    <path clip-path="url(#pb3d3e7d6aa)" d="M 218.41524 246.2 
L 222.036397 246.2 
L 222.036397 245.84077 
L 218.41524 245.84077 
z
" style="fill:#00549f;"/>
   </g>
   <g id="patch_48">
    <path clip-path="url(#pb3d3e7d6aa)" d="M 222.036397 246.2 
L 225.657553 246.2 
L 225.657553 245.960513 
L 222.036397 245.960513 
z
" style="fill:#00549f;"/>
   </g>
   <g id="patch_49">
    <path clip-path="url(#pb3d3e7d6aa)" d="M 225.657553 246.2 
L 229.278709 246.2 
L 229.278709 245.780898 
L 225.657553 245.780898 
z
" style="fill:#00549f;"/>
   </g>
   <g id="patch_50">
    <path clip-path="url(#pb3d3e7d6aa)" d="M 229.278709 246.2 
L 232.899866 246.2 
L 232.899866 245.900641 
L 229.278709 245.900641 
z
" style="fill:#00549f;"/>
   </g>
   <g id="patch_51">
    <path clip-path="url(#pb3d3e7d6aa)" d="M 232.899866 246.2 
L 236.521022 246.2 
L 236.521022 245.721026 
L 232.899866 245.721026 
z
" style="fill:#00549f;"/>
   </g>
   <g id="patch_52">
    <path clip-path="url(#pb3d3e7d6aa)" d="M 236.521022 246.2 
L 240.142179 246.2 
L 240.142179 246.080257 
L 236.521022 246.080257 
z
" style="fill:#00549f;"/>
   </g>
   <g id="patch_53">
    <path clip-path="url(#pb3d3e7d6aa)" d="M 240.142179 246.2 
L 243.763335 246.2 
L 243.763335 245.900641 
L 240.142179 245.900641 
z
" style="fill:#00549f;"/>
   </g>
   <g id="patch_54">
    <path clip-path="url(#pb3d3e7d6aa)" d="M 243.763335 246.2 
L 247.384492 246.2 
L 247.384492 245.780898 
L 243.763335 245.780898 
z
" style="fill:#00549f;"/>
   </g>
   <g id="patch_55">
    <path clip-path="url(#pb3d3e7d6aa)" d="M 247.384492 246.2 
L 251.005648 246.2 
L 251.005648 245.780898 
L 247.384492 245.780898 
z
" style="fill:#00549f;"/>
   </g>
   <g id="patch_56">
    <path clip-path="url(#pb3d3e7d6aa)" d="M 251.005648 246.2 
L 254.626804 246.2 
L 254.626804 246.020385 
L 251.005648 246.020385 
z
" style="fill:#00549f;"/>
   </g>
   <g id="patch_57">
    <path clip-path="url(#pb3d3e7d6aa)" d="M 254.626804 246.2 
L 258.247961 246.2 
L 258.247961 246.080257 
L 254.626804 246.080257 
z
" style="fill:#00549f;"/>
   </g>
   <g id="patch_58">
    <path clip-path="url(#pb3d3e7d6aa)" d="M 258.247961 246.2 
L 261.869117 246.2 
L 261.869117 246.080257 
L 258.247961 246.080257 
z
" style="fill:#00549f;"/>
   </g>
   <g id="patch_59">
    <path clip-path="url(#pb3d3e7d6aa)" d="M 261.869117 246.2 
L 265.490274 246.2 
L 265.490274 245.960513 
L 261.869117 245.960513 
z
" style="fill:#00549f;"/>
   </g>
   <g id="patch_60">
    <path clip-path="url(#pb3d3e7d6aa)" d="M 265.490274 246.2 
L 269.11143 246.2 
L 269.11143 246.020385 
L 265.490274 246.020385 
z
" style="fill:#00549f;"/>
   </g>
   <g id="patch_61">
    <path clip-path="url(#pb3d3e7d6aa)" d="M 269.11143 246.2 
L 272.732587 246.2 
L 272.732587 245.84077 
L 269.11143 245.84077 
z
" style="fill:#00549f;"/>
   </g>
   <g id="patch_62">
    <path clip-path="url(#pb3d3e7d6aa)" d="M 272.732587 246.2 
L 276.353743 246.2 
L 276.353743 246.080257 
L 272.732587 246.080257 
z
" style="fill:#00549f;"/>
   </g>
   <g id="patch_63">
    <path clip-path="url(#pb3d3e7d6aa)" d="M 276.353743 246.2 
L 279.974899 246.2 
L 279.974899 245.960513 
L 276.353743 245.960513 
z
" style="fill:#00549f;"/>
   </g>
   <g id="patch_64">
    <path clip-path="url(#pb3d3e7d6aa)" d="M 279.974899 246.2 
L 283.596056 246.2 
L 283.596056 246.2 
L 279.974899 246.2 
z
" style="fill:#00549f;"/>
   </g>
   <g id="patch_65">
    <path clip-path="url(#pb3d3e7d6aa)" d="M 283.596056 246.2 
L 287.217212 246.2 
L 287.217212 245.960513 
L 283.596056 245.960513 
z
" style="fill:#00549f;"/>
   </g>
   <g id="patch_66">
    <path clip-path="url(#pb3d3e7d6aa)" d="M 287.217212 246.2 
L 290.838369 246.2 
L 290.838369 246.140128 
L 287.217212 246.140128 
z
" style="fill:#00549f;"/>
   </g>
   <g id="patch_67">
    <path clip-path="url(#pb3d3e7d6aa)" d="M 290.838369 246.2 
L 294.459525 246.2 
L 294.459525 246.2 
L 290.838369 246.2 
z
" style="fill:#00549f;"/>
   </g>
   <g id="patch_68">
    <path clip-path="url(#pb3d3e7d6aa)" d="M 294.459525 246.2 
L 298.080682 246.2 
L 298.080682 246.140128 
L 294.459525 246.140128 
z
" style="fill:#00549f;"/>
   </g>
   <g id="patch_69">
    <path clip-path="url(#pb3d3e7d6aa)" d="M 298.080682 246.2 
L 301.701838 246.2 
L 301.701838 246.080257 
L 298.080682 246.080257 
z
" style="fill:#00549f;"/>
   </g>
   <g id="patch_70">
    <path clip-path="url(#pb3d3e7d6aa)" d="M 301.701838 246.2 
L 305.322994 246.2 
L 305.322994 246.080257 
L 301.701838 246.080257 
z
" style="fill:#00549f;"/>
   </g>
   <g id="patch_71">
    <path clip-path="url(#pb3d3e7d6aa)" d="M 305.322994 246.2 
L 308.944151 246.2 
L 308.944151 246.2 
L 305.322994 246.2 
z
" style="fill:#00549f;"/>
   </g>
   <g id="patch_72">
    <path clip-path="url(#pb3d3e7d6aa)" d="M 308.944151 246.2 
L 312.565307 246.2 
L 312.565307 246.080257 
L 308.944151 246.080257 
z
" style="fill:#00549f;"/>
   </g>
   <g id="patch_73">
    <path clip-path="url(#pb3d3e7d6aa)" d="M 312.565307 246.2 
L 316.186464 246.2 
L 316.186464 245.900641 
L 312.565307 245.900641 
z
" style="fill:#00549f;"/>
   </g>
   <g id="patch_74">
    <path clip-path="url(#pb3d3e7d6aa)" d="M 316.186464 246.2 
L 319.80762 246.2 
L 319.80762 246.2 
L 316.186464 246.2 
z
" style="fill:#00549f;"/>
   </g>
   <g id="patch_75">
    <path clip-path="url(#pb3d3e7d6aa)" d="M 319.80762 246.2 
L 323.428777 246.2 
L 323.428777 246.140128 
L 319.80762 246.140128 
z
" style="fill:#00549f;"/>
   </g>
   <g id="patch_76">
    <path clip-path="url(#pb3d3e7d6aa)" d="M 323.428777 246.2 
L 327.049933 246.2 
L 327.049933 246.080257 
L 323.428777 246.080257 
z
" style="fill:#00549f;"/>
   </g>
   <g id="patch_77">
    <path clip-path="url(#pb3d3e7d6aa)" d="M 327.049933 246.2 
L 330.671089 246.2 
L 330.671089 246.140128 
L 327.049933 246.140128 
z
" style="fill:#00549f;"/>
   </g>
   <g id="patch_78">
    <path clip-path="url(#pb3d3e7d6aa)" d="M 330.671089 246.2 
L 334.292246 246.2 
L 334.292246 246.080257 
L 330.671089 246.080257 
z
" style="fill:#00549f;"/>
   </g>
   <g id="patch_79">
    <path clip-path="url(#pb3d3e7d6aa)" d="M 334.292246 246.2 
L 337.913402 246.2 
L 337.913402 246.140128 
L 334.292246 246.140128 
z
" style="fill:#00549f;"/>
   </g>
   <g id="patch_80">
    <path clip-path="url(#pb3d3e7d6aa)" d="M 337.913402 246.2 
L 341.534559 246.2 
L 341.534559 246.2 
L 337.913402 246.2 
z
" style="fill:#00549f;"/>
   </g>
   <g id="patch_81">
    <path clip-path="url(#pb3d3e7d6aa)" d="M 341.534559 246.2 
L 345.155715 246.2 
L 345.155715 246.140128 
L 341.534559 246.140128 
z
" style="fill:#00549f;"/>
   </g>
   <g id="patch_82">
    <path clip-path="url(#pb3d3e7d6aa)" d="M 345.155715 246.2 
L 348.776872 246.2 
L 348.776872 246.140128 
L 345.155715 246.140128 
z
" style="fill:#00549f;"/>
   </g>
   <g id="patch_83">
    <path clip-path="url(#pb3d3e7d6aa)" d="M 348.776872 246.2 
L 352.398028 246.2 
L 352.398028 246.2 
L 348.776872 246.2 
z
" style="fill:#00549f;"/>
   </g>
   <g id="patch_84">
    <path clip-path="url(#pb3d3e7d6aa)" d="M 352.398028 246.2 
L 356.019184 246.2 
L 356.019184 246.2 
L 352.398028 246.2 
z
" style="fill:#00549f;"/>
   </g>
   <g id="patch_85">
    <path clip-path="url(#pb3d3e7d6aa)" d="M 356.019184 246.2 
L 359.640341 246.2 
L 359.640341 246.2 
L 356.019184 246.2 
z
" style="fill:#00549f;"/>
   </g>
   <g id="patch_86">
    <path clip-path="url(#pb3d3e7d6aa)" d="M 359.640341 246.2 
L 363.261497 246.2 
L 363.261497 246.2 
L 359.640341 246.2 
z
" style="fill:#00549f;"/>
   </g>
   <g id="patch_87">
    <path clip-path="url(#pb3d3e7d6aa)" d="M 363.261497 246.2 
L 366.882654 246.2 
L 366.882654 246.2 
L 363.261497 246.2 
z
" style="fill:#00549f;"/>
   </g>
   <g id="patch_88">
    <path clip-path="url(#pb3d3e7d6aa)" d="M 366.882654 246.2 
L 370.50381 246.2 
L 370.50381 246.2 
L 366.882654 246.2 
z
" style="fill:#00549f;"/>
   </g>
   <g id="patch_89">
    <path clip-path="url(#pb3d3e7d6aa)" d="M 370.50381 246.2 
L 374.124966 246.2 
L 374.124966 246.2 
L 370.50381 246.2 
z
" style="fill:#00549f;"/>
   </g>
   <g id="patch_90">
    <path clip-path="url(#pb3d3e7d6aa)" d="M 374.124966 246.2 
L 377.746123 246.2 
L 377.746123 246.2 
L 374.124966 246.2 
z
" style="fill:#00549f;"/>
   </g>
   <g id="patch_91">
    <path clip-path="url(#pb3d3e7d6aa)" d="M 377.746123 246.2 
L 381.367279 246.2 
L 381.367279 246.2 
L 377.746123 246.2 
z
" style="fill:#00549f;"/>
   </g>
   <g id="patch_92">
    <path clip-path="url(#pb3d3e7d6aa)" d="M 381.367279 246.2 
L 384.988436 246.2 
L 384.988436 246.2 
L 381.367279 246.2 
z
" style="fill:#00549f;"/>
   </g>
   <g id="patch_93">
    <path clip-path="url(#pb3d3e7d6aa)" d="M 384.988436 246.2 
L 388.609592 246.2 
L 388.609592 246.140128 
L 384.988436 246.140128 
z
" style="fill:#00549f;"/>
   </g>
   <g id="patch_94">
    <path clip-path="url(#pb3d3e7d6aa)" d="M 388.609592 246.2 
L 392.230749 246.2 
L 392.230749 246.2 
L 388.609592 246.2 
z
" style="fill:#00549f;"/>
   </g>
   <g id="patch_95">
    <path clip-path="url(#pb3d3e7d6aa)" d="M 392.230749 246.2 
L 395.851905 246.2 
L 395.851905 246.140128 
L 392.230749 246.140128 
z
" style="fill:#00549f;"/>
   </g>
   <g id="patch_96">
    <path clip-path="url(#pb3d3e7d6aa)" d="M 395.851905 246.2 
L 399.473061 246.2 
L 399.473061 246.2 
L 395.851905 246.2 
z
" style="fill:#00549f;"/>
   </g>
   <g id="patch_97">
    <path clip-path="url(#pb3d3e7d6aa)" d="M 399.473061 246.2 
L 403.094218 246.2 
L 403.094218 246.140128 
L 399.473061 246.140128 
z
" style="fill:#00549f;"/>
   </g>
   <g id="patch_98">
    <path clip-path="url(#pb3d3e7d6aa)" d="M 403.094218 246.2 
L 406.715374 246.2 
L 406.715374 246.2 
L 403.094218 246.2 
z
" style="fill:#00549f;"/>
   </g>
   <g id="patch_99">
    <path clip-path="url(#pb3d3e7d6aa)" d="M 406.715374 246.2 
L 410.336531 246.2 
L 410.336531 246.2 
L 406.715374 246.2 
z
" style="fill:#00549f;"/>
   </g>
   <g id="patch_100">
    <path clip-path="url(#pb3d3e7d6aa)" d="M 410.336531 246.2 
L 413.957687 246.2 
L 413.957687 246.2 
L 410.336531 246.2 
z
" style="fill:#00549f;"/>
   </g>
   <g id="patch_101">
    <path clip-path="url(#pb3d3e7d6aa)" d="M 413.957687 246.2 
L 417.578844 246.2 
L 417.578844 246.2 
L 413.957687 246.2 
z
" style="fill:#00549f;"/>
   </g>
   <g id="patch_102">
    <path clip-path="url(#pb3d3e7d6aa)" d="M 417.578844 246.2 
L 421.2 246.2 
L 421.2 246.140128 
L 417.578844 246.140128 
z
" style="fill:#00549f;"/>
   </g>
   <g id="matplotlib.axis_1">
    <g id="xtick_1">
     <g id="line2d_1">
      <defs>
       <path d="M 0 0 
L 0 3.5 
" id="mc4b34b887b" style="stroke:#000000;stroke-width:0.8;"/>
      </defs>
      <g>
       <use style="stroke:#000000;stroke-width:0.8;" x="59.084358" xlink:href="#mc4b34b887b" y="246.2"/>
      </g>
     </g>
     <g id="text_1">
      <!-- 0 -->
      <defs>
       <path d="M 31.78125 66.40625 
Q 24.171875 66.40625 20.328125 58.90625 
Q 16.5 51.421875 16.5 36.375 
Q 16.5 21.390625 20.328125 13.890625 
Q 24.171875 6.390625 31.78125 6.390625 
Q 39.453125 6.390625 43.28125 13.890625 
Q 47.125 21.390625 47.125 36.375 
Q 47.125 51.421875 43.28125 58.90625 
Q 39.453125 66.40625 31.78125 66.40625 
z
M 31.78125 74.21875 
Q 44.046875 74.21875 50.515625 64.515625 
Q 56.984375 54.828125 56.984375 36.375 
Q 56.984375 17.96875 50.515625 8.265625 
Q 44.046875 -1.421875 31.78125 -1.421875 
Q 19.53125 -1.421875 13.0625 8.265625 
Q 6.59375 17.96875 6.59375 36.375 
Q 6.59375 54.828125 13.0625 64.515625 
Q 19.53125 74.21875 31.78125 74.21875 
z
" id="DejaVuSans-48"/>
      </defs>
      <g transform="translate(55.903108 260.798437)scale(0.1 -0.1)">
       <use xlink:href="#DejaVuSans-48"/>
      </g>
     </g>
    </g>
    <g id="xtick_2">
     <g id="line2d_2">
      <g>
       <use style="stroke:#000000;stroke-width:0.8;" x="99.771508" xlink:href="#mc4b34b887b" y="246.2"/>
      </g>
     </g>
     <g id="text_2">
      <!-- 20 -->
      <defs>
       <path d="M 19.1875 8.296875 
L 53.609375 8.296875 
L 53.609375 0 
L 7.328125 0 
L 7.328125 8.296875 
Q 12.9375 14.109375 22.625 23.890625 
Q 32.328125 33.6875 34.8125 36.53125 
Q 39.546875 41.84375 41.421875 45.53125 
Q 43.3125 49.21875 43.3125 52.78125 
Q 43.3125 58.59375 39.234375 62.25 
Q 35.15625 65.921875 28.609375 65.921875 
Q 23.96875 65.921875 18.8125 64.3125 
Q 13.671875 62.703125 7.8125 59.421875 
L 7.8125 69.390625 
Q 13.765625 71.78125 18.9375 73 
Q 24.125 74.21875 28.421875 74.21875 
Q 39.75 74.21875 46.484375 68.546875 
Q 53.21875 62.890625 53.21875 53.421875 
Q 53.21875 48.921875 51.53125 44.890625 
Q 49.859375 40.875 45.40625 35.40625 
Q 44.1875 33.984375 37.640625 27.21875 
Q 31.109375 20.453125 19.1875 8.296875 
z
" id="DejaVuSans-50"/>
      </defs>
      <g transform="translate(93.409008 260.798437)scale(0.1 -0.1)">
       <use xlink:href="#DejaVuSans-50"/>
       <use x="63.623047" xlink:href="#DejaVuSans-48"/>
      </g>
     </g>
    </g>
    <g id="xtick_3">
     <g id="line2d_3">
      <g>
       <use style="stroke:#000000;stroke-width:0.8;" x="140.458659" xlink:href="#mc4b34b887b" y="246.2"/>
      </g>
     </g>
     <g id="text_3">
      <!-- 40 -->
      <defs>
       <path d="M 37.796875 64.3125 
L 12.890625 25.390625 
L 37.796875 25.390625 
z
M 35.203125 72.90625 
L 47.609375 72.90625 
L 47.609375 25.390625 
L 58.015625 25.390625 
L 58.015625 17.1875 
L 47.609375 17.1875 
L 47.609375 0 
L 37.796875 0 
L 37.796875 17.1875 
L 4.890625 17.1875 
L 4.890625 26.703125 
z
" id="DejaVuSans-52"/>
      </defs>
      <g transform="translate(134.096159 260.798437)scale(0.1 -0.1)">
       <use xlink:href="#DejaVuSans-52"/>
       <use x="63.623047" xlink:href="#DejaVuSans-48"/>
      </g>
     </g>
    </g>
    <g id="xtick_4">
     <g id="line2d_4">
      <g>
       <use style="stroke:#000000;stroke-width:0.8;" x="181.14581" xlink:href="#mc4b34b887b" y="246.2"/>
      </g>
     </g>
     <g id="text_4">
      <!-- 60 -->
      <defs>
       <path d="M 33.015625 40.375 
Q 26.375 40.375 22.484375 35.828125 
Q 18.609375 31.296875 18.609375 23.390625 
Q 18.609375 15.53125 22.484375 10.953125 
Q 26.375 6.390625 33.015625 6.390625 
Q 39.65625 6.390625 43.53125 10.953125 
Q 47.40625 15.53125 47.40625 23.390625 
Q 47.40625 31.296875 43.53125 35.828125 
Q 39.65625 40.375 33.015625 40.375 
z
M 52.59375 71.296875 
L 52.59375 62.3125 
Q 48.875 64.0625 45.09375 64.984375 
Q 41.3125 65.921875 37.59375 65.921875 
Q 27.828125 65.921875 22.671875 59.328125 
Q 17.53125 52.734375 16.796875 39.40625 
Q 19.671875 43.65625 24.015625 45.921875 
Q 28.375 48.1875 33.59375 48.1875 
Q 44.578125 48.1875 50.953125 41.515625 
Q 57.328125 34.859375 57.328125 23.390625 
Q 57.328125 12.15625 50.6875 5.359375 
Q 44.046875 -1.421875 33.015625 -1.421875 
Q 20.359375 -1.421875 13.671875 8.265625 
Q 6.984375 17.96875 6.984375 36.375 
Q 6.984375 53.65625 15.1875 63.9375 
Q 23.390625 74.21875 37.203125 74.21875 
Q 40.921875 74.21875 44.703125 73.484375 
Q 48.484375 72.75 52.59375 71.296875 
z
" id="DejaVuSans-54"/>
      </defs>
      <g transform="translate(174.78331 260.798437)scale(0.1 -0.1)">
       <use xlink:href="#DejaVuSans-54"/>
       <use x="63.623047" xlink:href="#DejaVuSans-48"/>
      </g>
     </g>
    </g>
    <g id="xtick_5">
     <g id="line2d_5">
      <g>
       <use style="stroke:#000000;stroke-width:0.8;" x="221.832961" xlink:href="#mc4b34b887b" y="246.2"/>
      </g>
     </g>
     <g id="text_5">
      <!-- 80 -->
      <defs>
       <path d="M 31.78125 34.625 
Q 24.75 34.625 20.71875 30.859375 
Q 16.703125 27.09375 16.703125 20.515625 
Q 16.703125 13.921875 20.71875 10.15625 
Q 24.75 6.390625 31.78125 6.390625 
Q 38.8125 6.390625 42.859375 10.171875 
Q 46.921875 13.96875 46.921875 20.515625 
Q 46.921875 27.09375 42.890625 30.859375 
Q 38.875 34.625 31.78125 34.625 
z
M 21.921875 38.8125 
Q 15.578125 40.375 12.03125 44.71875 
Q 8.5 49.078125 8.5 55.328125 
Q 8.5 64.0625 14.71875 69.140625 
Q 20.953125 74.21875 31.78125 74.21875 
Q 42.671875 74.21875 48.875 69.140625 
Q 55.078125 64.0625 55.078125 55.328125 
Q 55.078125 49.078125 51.53125 44.71875 
Q 48 40.375 41.703125 38.8125 
Q 48.828125 37.15625 52.796875 32.3125 
Q 56.78125 27.484375 56.78125 20.515625 
Q 56.78125 9.90625 50.3125 4.234375 
Q 43.84375 -1.421875 31.78125 -1.421875 
Q 19.734375 -1.421875 13.25 4.234375 
Q 6.78125 9.90625 6.78125 20.515625 
Q 6.78125 27.484375 10.78125 32.3125 
Q 14.796875 37.15625 21.921875 38.8125 
z
M 18.3125 54.390625 
Q 18.3125 48.734375 21.84375 45.5625 
Q 25.390625 42.390625 31.78125 42.390625 
Q 38.140625 42.390625 41.71875 45.5625 
Q 45.3125 48.734375 45.3125 54.390625 
Q 45.3125 60.0625 41.71875 63.234375 
Q 38.140625 66.40625 31.78125 66.40625 
Q 25.390625 66.40625 21.84375 63.234375 
Q 18.3125 60.0625 18.3125 54.390625 
z
" id="DejaVuSans-56"/>
      </defs>
      <g transform="translate(215.470461 260.798437)scale(0.1 -0.1)">
       <use xlink:href="#DejaVuSans-56"/>
       <use x="63.623047" xlink:href="#DejaVuSans-48"/>
      </g>
     </g>
    </g>
    <g id="xtick_6">
     <g id="line2d_6">
      <g>
       <use style="stroke:#000000;stroke-width:0.8;" x="262.520112" xlink:href="#mc4b34b887b" y="246.2"/>
      </g>
     </g>
     <g id="text_6">
      <!-- 100 -->
      <defs>
       <path d="M 12.40625 8.296875 
L 28.515625 8.296875 
L 28.515625 63.921875 
L 10.984375 60.40625 
L 10.984375 69.390625 
L 28.421875 72.90625 
L 38.28125 72.90625 
L 38.28125 8.296875 
L 54.390625 8.296875 
L 54.390625 0 
L 12.40625 0 
z
" id="DejaVuSans-49"/>
      </defs>
      <g transform="translate(252.976362 260.798437)scale(0.1 -0.1)">
       <use xlink:href="#DejaVuSans-49"/>
       <use x="63.623047" xlink:href="#DejaVuSans-48"/>
       <use x="127.246094" xlink:href="#DejaVuSans-48"/>
      </g>
     </g>
    </g>
    <g id="xtick_7">
     <g id="line2d_7">
      <g>
       <use style="stroke:#000000;stroke-width:0.8;" x="303.207263" xlink:href="#mc4b34b887b" y="246.2"/>
      </g>
     </g>
     <g id="text_7">
      <!-- 120 -->
      <g transform="translate(293.663513 260.798437)scale(0.1 -0.1)">
       <use xlink:href="#DejaVuSans-49"/>
       <use x="63.623047" xlink:href="#DejaVuSans-50"/>
       <use x="127.246094" xlink:href="#DejaVuSans-48"/>
      </g>
     </g>
    </g>
    <g id="xtick_8">
     <g id="line2d_8">
      <g>
       <use style="stroke:#000000;stroke-width:0.8;" x="343.894413" xlink:href="#mc4b34b887b" y="246.2"/>
      </g>
     </g>
     <g id="text_8">
      <!-- 140 -->
      <g transform="translate(334.350663 260.798437)scale(0.1 -0.1)">
       <use xlink:href="#DejaVuSans-49"/>
       <use x="63.623047" xlink:href="#DejaVuSans-52"/>
       <use x="127.246094" xlink:href="#DejaVuSans-48"/>
      </g>
     </g>
    </g>
    <g id="xtick_9">
     <g id="line2d_9">
      <g>
       <use style="stroke:#000000;stroke-width:0.8;" x="384.581564" xlink:href="#mc4b34b887b" y="246.2"/>
      </g>
     </g>
     <g id="text_9">
      <!-- 160 -->
      <g transform="translate(375.037814 260.798437)scale(0.1 -0.1)">
       <use xlink:href="#DejaVuSans-49"/>
       <use x="63.623047" xlink:href="#DejaVuSans-54"/>
       <use x="127.246094" xlink:href="#DejaVuSans-48"/>
      </g>
     </g>
    </g>
    <g id="text_10">
     <!-- Number of annotations -->
     <defs>
      <path d="M 9.8125 72.90625 
L 23.09375 72.90625 
L 55.421875 11.921875 
L 55.421875 72.90625 
L 64.984375 72.90625 
L 64.984375 0 
L 51.703125 0 
L 19.390625 60.984375 
L 19.390625 0 
L 9.8125 0 
z
" id="DejaVuSans-78"/>
      <path d="M 8.5 21.578125 
L 8.5 54.6875 
L 17.484375 54.6875 
L 17.484375 21.921875 
Q 17.484375 14.15625 20.5 10.265625 
Q 23.53125 6.390625 29.59375 6.390625 
Q 36.859375 6.390625 41.078125 11.03125 
Q 45.3125 15.671875 45.3125 23.6875 
L 45.3125 54.6875 
L 54.296875 54.6875 
L 54.296875 0 
L 45.3125 0 
L 45.3125 8.40625 
Q 42.046875 3.421875 37.71875 1 
Q 33.40625 -1.421875 27.6875 -1.421875 
Q 18.265625 -1.421875 13.375 4.4375 
Q 8.5 10.296875 8.5 21.578125 
z
M 31.109375 56 
z
" id="DejaVuSans-117"/>
      <path d="M 52 44.1875 
Q 55.375 50.25 60.0625 53.125 
Q 64.75 56 71.09375 56 
Q 79.640625 56 84.28125 50.015625 
Q 88.921875 44.046875 88.921875 33.015625 
L 88.921875 0 
L 79.890625 0 
L 79.890625 32.71875 
Q 79.890625 40.578125 77.09375 44.375 
Q 74.3125 48.1875 68.609375 48.1875 
Q 61.625 48.1875 57.5625 43.546875 
Q 53.515625 38.921875 53.515625 30.90625 
L 53.515625 0 
L 44.484375 0 
L 44.484375 32.71875 
Q 44.484375 40.625 41.703125 44.40625 
Q 38.921875 48.1875 33.109375 48.1875 
Q 26.21875 48.1875 22.15625 43.53125 
Q 18.109375 38.875 18.109375 30.90625 
L 18.109375 0 
L 9.078125 0 
L 9.078125 54.6875 
L 18.109375 54.6875 
L 18.109375 46.1875 
Q 21.1875 51.21875 25.484375 53.609375 
Q 29.78125 56 35.6875 56 
Q 41.65625 56 45.828125 52.96875 
Q 50 49.953125 52 44.1875 
z
" id="DejaVuSans-109"/>
      <path d="M 48.6875 27.296875 
Q 48.6875 37.203125 44.609375 42.84375 
Q 40.53125 48.484375 33.40625 48.484375 
Q 26.265625 48.484375 22.1875 42.84375 
Q 18.109375 37.203125 18.109375 27.296875 
Q 18.109375 17.390625 22.1875 11.75 
Q 26.265625 6.109375 33.40625 6.109375 
Q 40.53125 6.109375 44.609375 11.75 
Q 48.6875 17.390625 48.6875 27.296875 
z
M 18.109375 46.390625 
Q 20.953125 51.265625 25.265625 53.625 
Q 29.59375 56 35.59375 56 
Q 45.5625 56 51.78125 48.09375 
Q 58.015625 40.1875 58.015625 27.296875 
Q 58.015625 14.40625 51.78125 6.484375 
Q 45.5625 -1.421875 35.59375 -1.421875 
Q 29.59375 -1.421875 25.265625 0.953125 
Q 20.953125 3.328125 18.109375 8.203125 
L 18.109375 0 
L 9.078125 0 
L 9.078125 75.984375 
L 18.109375 75.984375 
z
" id="DejaVuSans-98"/>
      <path d="M 56.203125 29.59375 
L 56.203125 25.203125 
L 14.890625 25.203125 
Q 15.484375 15.921875 20.484375 11.0625 
Q 25.484375 6.203125 34.421875 6.203125 
Q 39.59375 6.203125 44.453125 7.46875 
Q 49.3125 8.734375 54.109375 11.28125 
L 54.109375 2.78125 
Q 49.265625 0.734375 44.1875 -0.34375 
Q 39.109375 -1.421875 33.890625 -1.421875 
Q 20.796875 -1.421875 13.15625 6.1875 
Q 5.515625 13.8125 5.515625 26.8125 
Q 5.515625 40.234375 12.765625 48.109375 
Q 20.015625 56 32.328125 56 
Q 43.359375 56 49.78125 48.890625 
Q 56.203125 41.796875 56.203125 29.59375 
z
M 47.21875 32.234375 
Q 47.125 39.59375 43.09375 43.984375 
Q 39.0625 48.390625 32.421875 48.390625 
Q 24.90625 48.390625 20.390625 44.140625 
Q 15.875 39.890625 15.1875 32.171875 
z
" id="DejaVuSans-101"/>
      <path d="M 41.109375 46.296875 
Q 39.59375 47.171875 37.8125 47.578125 
Q 36.03125 48 33.890625 48 
Q 26.265625 48 22.1875 43.046875 
Q 18.109375 38.09375 18.109375 28.8125 
L 18.109375 0 
L 9.078125 0 
L 9.078125 54.6875 
L 18.109375 54.6875 
L 18.109375 46.1875 
Q 20.953125 51.171875 25.484375 53.578125 
Q 30.03125 56 36.53125 56 
Q 37.453125 56 38.578125 55.875 
Q 39.703125 55.765625 41.0625 55.515625 
z
" id="DejaVuSans-114"/>
      <path id="DejaVuSans-32"/>
      <path d="M 30.609375 48.390625 
Q 23.390625 48.390625 19.1875 42.75 
Q 14.984375 37.109375 14.984375 27.296875 
Q 14.984375 17.484375 19.15625 11.84375 
Q 23.34375 6.203125 30.609375 6.203125 
Q 37.796875 6.203125 41.984375 11.859375 
Q 46.1875 17.53125 46.1875 27.296875 
Q 46.1875 37.015625 41.984375 42.703125 
Q 37.796875 48.390625 30.609375 48.390625 
z
M 30.609375 56 
Q 42.328125 56 49.015625 48.375 
Q 55.71875 40.765625 55.71875 27.296875 
Q 55.71875 13.875 49.015625 6.21875 
Q 42.328125 -1.421875 30.609375 -1.421875 
Q 18.84375 -1.421875 12.171875 6.21875 
Q 5.515625 13.875 5.515625 27.296875 
Q 5.515625 40.765625 12.171875 48.375 
Q 18.84375 56 30.609375 56 
z
" id="DejaVuSans-111"/>
      <path d="M 37.109375 75.984375 
L 37.109375 68.5 
L 28.515625 68.5 
Q 23.6875 68.5 21.796875 66.546875 
Q 19.921875 64.59375 19.921875 59.515625 
L 19.921875 54.6875 
L 34.71875 54.6875 
L 34.71875 47.703125 
L 19.921875 47.703125 
L 19.921875 0 
L 10.890625 0 
L 10.890625 47.703125 
L 2.296875 47.703125 
L 2.296875 54.6875 
L 10.890625 54.6875 
L 10.890625 58.5 
Q 10.890625 67.625 15.140625 71.796875 
Q 19.390625 75.984375 28.609375 75.984375 
z
" id="DejaVuSans-102"/>
      <path d="M 34.28125 27.484375 
Q 23.390625 27.484375 19.1875 25 
Q 14.984375 22.515625 14.984375 16.5 
Q 14.984375 11.71875 18.140625 8.90625 
Q 21.296875 6.109375 26.703125 6.109375 
Q 34.1875 6.109375 38.703125 11.40625 
Q 43.21875 16.703125 43.21875 25.484375 
L 43.21875 27.484375 
z
M 52.203125 31.203125 
L 52.203125 0 
L 43.21875 0 
L 43.21875 8.296875 
Q 40.140625 3.328125 35.546875 0.953125 
Q 30.953125 -1.421875 24.3125 -1.421875 
Q 15.921875 -1.421875 10.953125 3.296875 
Q 6 8.015625 6 15.921875 
Q 6 25.140625 12.171875 29.828125 
Q 18.359375 34.515625 30.609375 34.515625 
L 43.21875 34.515625 
L 43.21875 35.40625 
Q 43.21875 41.609375 39.140625 45 
Q 35.0625 48.390625 27.6875 48.390625 
Q 23 48.390625 18.546875 47.265625 
Q 14.109375 46.140625 10.015625 43.890625 
L 10.015625 52.203125 
Q 14.9375 54.109375 19.578125 55.046875 
Q 24.21875 56 28.609375 56 
Q 40.484375 56 46.34375 49.84375 
Q 52.203125 43.703125 52.203125 31.203125 
z
" id="DejaVuSans-97"/>
      <path d="M 54.890625 33.015625 
L 54.890625 0 
L 45.90625 0 
L 45.90625 32.71875 
Q 45.90625 40.484375 42.875 44.328125 
Q 39.84375 48.1875 33.796875 48.1875 
Q 26.515625 48.1875 22.3125 43.546875 
Q 18.109375 38.921875 18.109375 30.90625 
L 18.109375 0 
L 9.078125 0 
L 9.078125 54.6875 
L 18.109375 54.6875 
L 18.109375 46.1875 
Q 21.34375 51.125 25.703125 53.5625 
Q 30.078125 56 35.796875 56 
Q 45.21875 56 50.046875 50.171875 
Q 54.890625 44.34375 54.890625 33.015625 
z
" id="DejaVuSans-110"/>
      <path d="M 18.3125 70.21875 
L 18.3125 54.6875 
L 36.8125 54.6875 
L 36.8125 47.703125 
L 18.3125 47.703125 
L 18.3125 18.015625 
Q 18.3125 11.328125 20.140625 9.421875 
Q 21.96875 7.515625 27.59375 7.515625 
L 36.8125 7.515625 
L 36.8125 0 
L 27.59375 0 
Q 17.1875 0 13.234375 3.875 
Q 9.28125 7.765625 9.28125 18.015625 
L 9.28125 47.703125 
L 2.6875 47.703125 
L 2.6875 54.6875 
L 9.28125 54.6875 
L 9.28125 70.21875 
z
" id="DejaVuSans-116"/>
      <path d="M 9.421875 54.6875 
L 18.40625 54.6875 
L 18.40625 0 
L 9.421875 0 
z
M 9.421875 75.984375 
L 18.40625 75.984375 
L 18.40625 64.59375 
L 9.421875 64.59375 
z
" id="DejaVuSans-105"/>
      <path d="M 44.28125 53.078125 
L 44.28125 44.578125 
Q 40.484375 46.53125 36.375 47.5 
Q 32.28125 48.484375 27.875 48.484375 
Q 21.1875 48.484375 17.84375 46.4375 
Q 14.5 44.390625 14.5 40.28125 
Q 14.5 37.15625 16.890625 35.375 
Q 19.28125 33.59375 26.515625 31.984375 
L 29.59375 31.296875 
Q 39.15625 29.25 43.1875 25.515625 
Q 47.21875 21.78125 47.21875 15.09375 
Q 47.21875 7.46875 41.1875 3.015625 
Q 35.15625 -1.421875 24.609375 -1.421875 
Q 20.21875 -1.421875 15.453125 -0.5625 
Q 10.6875 0.296875 5.421875 2 
L 5.421875 11.28125 
Q 10.40625 8.6875 15.234375 7.390625 
Q 20.0625 6.109375 24.8125 6.109375 
Q 31.15625 6.109375 34.5625 8.28125 
Q 37.984375 10.453125 37.984375 14.40625 
Q 37.984375 18.0625 35.515625 20.015625 
Q 33.0625 21.96875 24.703125 23.78125 
L 21.578125 24.515625 
Q 13.234375 26.265625 9.515625 29.90625 
Q 5.8125 33.546875 5.8125 39.890625 
Q 5.8125 47.609375 11.28125 51.796875 
Q 16.75 56 26.8125 56 
Q 31.78125 56 36.171875 55.265625 
Q 40.578125 54.546875 44.28125 53.078125 
z
" id="DejaVuSans-115"/>
     </defs>
     <g transform="translate(181.374219 274.476562)scale(0.1 -0.1)">
      <use xlink:href="#DejaVuSans-78"/>
      <use x="74.804688" xlink:href="#DejaVuSans-117"/>
      <use x="138.183594" xlink:href="#DejaVuSans-109"/>
      <use x="235.595703" xlink:href="#DejaVuSans-98"/>
      <use x="299.072266" xlink:href="#DejaVuSans-101"/>
      <use x="360.595703" xlink:href="#DejaVuSans-114"/>
      <use x="401.708984" xlink:href="#DejaVuSans-32"/>
      <use x="433.496094" xlink:href="#DejaVuSans-111"/>
      <use x="494.677734" xlink:href="#DejaVuSans-102"/>
      <use x="529.882812" xlink:href="#DejaVuSans-32"/>
      <use x="561.669922" xlink:href="#DejaVuSans-97"/>
      <use x="622.949219" xlink:href="#DejaVuSans-110"/>
      <use x="686.328125" xlink:href="#DejaVuSans-110"/>
      <use x="749.707031" xlink:href="#DejaVuSans-111"/>
      <use x="810.888672" xlink:href="#DejaVuSans-116"/>
      <use x="850.097656" xlink:href="#DejaVuSans-97"/>
      <use x="911.376953" xlink:href="#DejaVuSans-116"/>
      <use x="950.585938" xlink:href="#DejaVuSans-105"/>
      <use x="978.369141" xlink:href="#DejaVuSans-111"/>
      <use x="1039.550781" xlink:href="#DejaVuSans-110"/>
      <use x="1102.929688" xlink:href="#DejaVuSans-115"/>
     </g>
    </g>
   </g>
   <g id="matplotlib.axis_2">
    <g id="ytick_1">
     <g id="line2d_10">
      <defs>
       <path d="M 0 0 
L -3.5 0 
" id="m0918ba260c" style="stroke:#000000;stroke-width:0.8;"/>
      </defs>
      <g>
       <use style="stroke:#000000;stroke-width:0.8;" x="57.05" xlink:href="#m0918ba260c" y="246.2"/>
      </g>
     </g>
     <g id="text_11">
      <!-- 0 -->
      <g transform="translate(43.6875 249.999219)scale(0.1 -0.1)">
       <use xlink:href="#DejaVuSans-48"/>
      </g>
     </g>
    </g>
    <g id="ytick_2">
     <g id="line2d_11">
      <g>
       <use style="stroke:#000000;stroke-width:0.8;" x="57.05" xlink:href="#m0918ba260c" y="216.264129"/>
      </g>
     </g>
     <g id="text_12">
      <!-- 500 -->
      <defs>
       <path d="M 10.796875 72.90625 
L 49.515625 72.90625 
L 49.515625 64.59375 
L 19.828125 64.59375 
L 19.828125 46.734375 
Q 21.96875 47.46875 24.109375 47.828125 
Q 26.265625 48.1875 28.421875 48.1875 
Q 40.625 48.1875 47.75 41.5 
Q 54.890625 34.8125 54.890625 23.390625 
Q 54.890625 11.625 47.5625 5.09375 
Q 40.234375 -1.421875 26.90625 -1.421875 
Q 22.3125 -1.421875 17.546875 -0.640625 
Q 12.796875 0.140625 7.71875 1.703125 
L 7.71875 11.625 
Q 12.109375 9.234375 16.796875 8.0625 
Q 21.484375 6.890625 26.703125 6.890625 
Q 35.15625 6.890625 40.078125 11.328125 
Q 45.015625 15.765625 45.015625 23.390625 
Q 45.015625 31 40.078125 35.4375 
Q 35.15625 39.890625 26.703125 39.890625 
Q 22.75 39.890625 18.8125 39.015625 
Q 14.890625 38.140625 10.796875 36.28125 
z
" id="DejaVuSans-53"/>
      </defs>
      <g transform="translate(30.9625 220.063348)scale(0.1 -0.1)">
       <use xlink:href="#DejaVuSans-53"/>
       <use x="63.623047" xlink:href="#DejaVuSans-48"/>
       <use x="127.246094" xlink:href="#DejaVuSans-48"/>
      </g>
     </g>
    </g>
    <g id="ytick_3">
     <g id="line2d_12">
      <g>
       <use style="stroke:#000000;stroke-width:0.8;" x="57.05" xlink:href="#m0918ba260c" y="186.328258"/>
      </g>
     </g>
     <g id="text_13">
      <!-- 1000 -->
      <g transform="translate(24.6 190.127476)scale(0.1 -0.1)">
       <use xlink:href="#DejaVuSans-49"/>
       <use x="63.623047" xlink:href="#DejaVuSans-48"/>
       <use x="127.246094" xlink:href="#DejaVuSans-48"/>
       <use x="190.869141" xlink:href="#DejaVuSans-48"/>
      </g>
     </g>
    </g>
    <g id="ytick_4">
     <g id="line2d_13">
      <g>
       <use style="stroke:#000000;stroke-width:0.8;" x="57.05" xlink:href="#m0918ba260c" y="156.392386"/>
      </g>
     </g>
     <g id="text_14">
      <!-- 1500 -->
      <g transform="translate(24.6 160.191605)scale(0.1 -0.1)">
       <use xlink:href="#DejaVuSans-49"/>
       <use x="63.623047" xlink:href="#DejaVuSans-53"/>
       <use x="127.246094" xlink:href="#DejaVuSans-48"/>
       <use x="190.869141" xlink:href="#DejaVuSans-48"/>
      </g>
     </g>
    </g>
    <g id="ytick_5">
     <g id="line2d_14">
      <g>
       <use style="stroke:#000000;stroke-width:0.8;" x="57.05" xlink:href="#m0918ba260c" y="126.456515"/>
      </g>
     </g>
     <g id="text_15">
      <!-- 2000 -->
      <g transform="translate(24.6 130.255734)scale(0.1 -0.1)">
       <use xlink:href="#DejaVuSans-50"/>
       <use x="63.623047" xlink:href="#DejaVuSans-48"/>
       <use x="127.246094" xlink:href="#DejaVuSans-48"/>
       <use x="190.869141" xlink:href="#DejaVuSans-48"/>
      </g>
     </g>
    </g>
    <g id="ytick_6">
     <g id="line2d_15">
      <g>
       <use style="stroke:#000000;stroke-width:0.8;" x="57.05" xlink:href="#m0918ba260c" y="96.520644"/>
      </g>
     </g>
     <g id="text_16">
      <!-- 2500 -->
      <g transform="translate(24.6 100.319863)scale(0.1 -0.1)">
       <use xlink:href="#DejaVuSans-50"/>
       <use x="63.623047" xlink:href="#DejaVuSans-53"/>
       <use x="127.246094" xlink:href="#DejaVuSans-48"/>
       <use x="190.869141" xlink:href="#DejaVuSans-48"/>
      </g>
     </g>
    </g>
    <g id="ytick_7">
     <g id="line2d_16">
      <g>
       <use style="stroke:#000000;stroke-width:0.8;" x="57.05" xlink:href="#m0918ba260c" y="66.584773"/>
      </g>
     </g>
     <g id="text_17">
      <!-- 3000 -->
      <defs>
       <path d="M 40.578125 39.3125 
Q 47.65625 37.796875 51.625 33 
Q 55.609375 28.21875 55.609375 21.1875 
Q 55.609375 10.40625 48.1875 4.484375 
Q 40.765625 -1.421875 27.09375 -1.421875 
Q 22.515625 -1.421875 17.65625 -0.515625 
Q 12.796875 0.390625 7.625 2.203125 
L 7.625 11.71875 
Q 11.71875 9.328125 16.59375 8.109375 
Q 21.484375 6.890625 26.8125 6.890625 
Q 36.078125 6.890625 40.9375 10.546875 
Q 45.796875 14.203125 45.796875 21.1875 
Q 45.796875 27.640625 41.28125 31.265625 
Q 36.765625 34.90625 28.71875 34.90625 
L 20.21875 34.90625 
L 20.21875 43.015625 
L 29.109375 43.015625 
Q 36.375 43.015625 40.234375 45.921875 
Q 44.09375 48.828125 44.09375 54.296875 
Q 44.09375 59.90625 40.109375 62.90625 
Q 36.140625 65.921875 28.71875 65.921875 
Q 24.65625 65.921875 20.015625 65.03125 
Q 15.375 64.15625 9.8125 62.3125 
L 9.8125 71.09375 
Q 15.4375 72.65625 20.34375 73.4375 
Q 25.25 74.21875 29.59375 74.21875 
Q 40.828125 74.21875 47.359375 69.109375 
Q 53.90625 64.015625 53.90625 55.328125 
Q 53.90625 49.265625 50.4375 45.09375 
Q 46.96875 40.921875 40.578125 39.3125 
z
" id="DejaVuSans-51"/>
      </defs>
      <g transform="translate(24.6 70.383992)scale(0.1 -0.1)">
       <use xlink:href="#DejaVuSans-51"/>
       <use x="63.623047" xlink:href="#DejaVuSans-48"/>
       <use x="127.246094" xlink:href="#DejaVuSans-48"/>
       <use x="190.869141" xlink:href="#DejaVuSans-48"/>
      </g>
     </g>
    </g>
    <g id="ytick_8">
     <g id="line2d_17">
      <g>
       <use style="stroke:#000000;stroke-width:0.8;" x="57.05" xlink:href="#m0918ba260c" y="36.648902"/>
      </g>
     </g>
     <g id="text_18">
      <!-- 3500 -->
      <g transform="translate(24.6 40.44812)scale(0.1 -0.1)">
       <use xlink:href="#DejaVuSans-51"/>
       <use x="63.623047" xlink:href="#DejaVuSans-53"/>
       <use x="127.246094" xlink:href="#DejaVuSans-48"/>
       <use x="190.869141" xlink:href="#DejaVuSans-48"/>
      </g>
     </g>
    </g>
    <g id="text_19">
     <!-- Proteins/complexes -->
     <defs>
      <path d="M 19.671875 64.796875 
L 19.671875 37.40625 
L 32.078125 37.40625 
Q 38.96875 37.40625 42.71875 40.96875 
Q 46.484375 44.53125 46.484375 51.125 
Q 46.484375 57.671875 42.71875 61.234375 
Q 38.96875 64.796875 32.078125 64.796875 
z
M 9.8125 72.90625 
L 32.078125 72.90625 
Q 44.34375 72.90625 50.609375 67.359375 
Q 56.890625 61.8125 56.890625 51.125 
Q 56.890625 40.328125 50.609375 34.8125 
Q 44.34375 29.296875 32.078125 29.296875 
L 19.671875 29.296875 
L 19.671875 0 
L 9.8125 0 
z
" id="DejaVuSans-80"/>
      <path d="M 25.390625 72.90625 
L 33.6875 72.90625 
L 8.296875 -9.28125 
L 0 -9.28125 
z
" id="DejaVuSans-47"/>
      <path d="M 48.78125 52.59375 
L 48.78125 44.1875 
Q 44.96875 46.296875 41.140625 47.34375 
Q 37.3125 48.390625 33.40625 48.390625 
Q 24.65625 48.390625 19.8125 42.84375 
Q 14.984375 37.3125 14.984375 27.296875 
Q 14.984375 17.28125 19.8125 11.734375 
Q 24.65625 6.203125 33.40625 6.203125 
Q 37.3125 6.203125 41.140625 7.25 
Q 44.96875 8.296875 48.78125 10.40625 
L 48.78125 2.09375 
Q 45.015625 0.34375 40.984375 -0.53125 
Q 36.96875 -1.421875 32.421875 -1.421875 
Q 20.0625 -1.421875 12.78125 6.34375 
Q 5.515625 14.109375 5.515625 27.296875 
Q 5.515625 40.671875 12.859375 48.328125 
Q 20.21875 56 33.015625 56 
Q 37.15625 56 41.109375 55.140625 
Q 45.0625 54.296875 48.78125 52.59375 
z
" id="DejaVuSans-99"/>
      <path d="M 18.109375 8.203125 
L 18.109375 -20.796875 
L 9.078125 -20.796875 
L 9.078125 54.6875 
L 18.109375 54.6875 
L 18.109375 46.390625 
Q 20.953125 51.265625 25.265625 53.625 
Q 29.59375 56 35.59375 56 
Q 45.5625 56 51.78125 48.09375 
Q 58.015625 40.1875 58.015625 27.296875 
Q 58.015625 14.40625 51.78125 6.484375 
Q 45.5625 -1.421875 35.59375 -1.421875 
Q 29.59375 -1.421875 25.265625 0.953125 
Q 20.953125 3.328125 18.109375 8.203125 
z
M 48.6875 27.296875 
Q 48.6875 37.203125 44.609375 42.84375 
Q 40.53125 48.484375 33.40625 48.484375 
Q 26.265625 48.484375 22.1875 42.84375 
Q 18.109375 37.203125 18.109375 27.296875 
Q 18.109375 17.390625 22.1875 11.75 
Q 26.265625 6.109375 33.40625 6.109375 
Q 40.53125 6.109375 44.609375 11.75 
Q 48.6875 17.390625 48.6875 27.296875 
z
" id="DejaVuSans-112"/>
      <path d="M 9.421875 75.984375 
L 18.40625 75.984375 
L 18.40625 0 
L 9.421875 0 
z
" id="DejaVuSans-108"/>
      <path d="M 54.890625 54.6875 
L 35.109375 28.078125 
L 55.90625 0 
L 45.3125 0 
L 29.390625 21.484375 
L 13.484375 0 
L 2.875 0 
L 24.125 28.609375 
L 4.6875 54.6875 
L 15.28125 54.6875 
L 29.78125 35.203125 
L 44.28125 54.6875 
z
" id="DejaVuSans-120"/>
     </defs>
     <g transform="translate(18.520312 185.467187)rotate(-90)scale(0.1 -0.1)">
      <use xlink:href="#DejaVuSans-80"/>
      <use x="60.287109" xlink:href="#DejaVuSans-114"/>
      <use x="101.369141" xlink:href="#DejaVuSans-111"/>
      <use x="162.550781" xlink:href="#DejaVuSans-116"/>
      <use x="201.759766" xlink:href="#DejaVuSans-101"/>
      <use x="263.283203" xlink:href="#DejaVuSans-105"/>
      <use x="291.066406" xlink:href="#DejaVuSans-110"/>
      <use x="354.445312" xlink:href="#DejaVuSans-115"/>
      <use x="406.544922" xlink:href="#DejaVuSans-47"/>
      <use x="440.236328" xlink:href="#DejaVuSans-99"/>
      <use x="495.216797" xlink:href="#DejaVuSans-111"/>
      <use x="556.398438" xlink:href="#DejaVuSans-109"/>
      <use x="653.810547" xlink:href="#DejaVuSans-112"/>
      <use x="717.287109" xlink:href="#DejaVuSans-108"/>
      <use x="745.070312" xlink:href="#DejaVuSans-101"/>
      <use x="806.578125" xlink:href="#DejaVuSans-120"/>
      <use x="865.710938" xlink:href="#DejaVuSans-101"/>
      <use x="927.234375" xlink:href="#DejaVuSans-115"/>
     </g>
    </g>
   </g>
   <g id="patch_103">
    <path d="M 57.05 246.2 
L 57.05 26.8 
" style="fill:none;stroke:#000000;stroke-linecap:square;stroke-linejoin:miter;stroke-width:0.8;"/>
   </g>
   <g id="patch_104">
    <path d="M 421.2 246.2 
L 421.2 26.8 
" style="fill:none;stroke:#000000;stroke-linecap:square;stroke-linejoin:miter;stroke-width:0.8;"/>
   </g>
   <g id="patch_105">
    <path d="M 57.05 246.2 
L 421.2 246.2 
" style="fill:none;stroke:#000000;stroke-linecap:square;stroke-linejoin:miter;stroke-width:0.8;"/>
   </g>
   <g id="patch_106">
    <path d="M 57.05 26.8 
L 421.2 26.8 
" style="fill:none;stroke:#000000;stroke-linecap:square;stroke-linejoin:miter;stroke-width:0.8;"/>
   </g>
   <g id="text_20">
    <!-- Annotations per protein/complex -->
    <defs>
     <path d="M 34.1875 63.1875 
L 20.796875 26.90625 
L 47.609375 26.90625 
z
M 28.609375 72.90625 
L 39.796875 72.90625 
L 67.578125 0 
L 57.328125 0 
L 50.6875 18.703125 
L 17.828125 18.703125 
L 11.1875 0 
L 0.78125 0 
z
" id="DejaVuSans-65"/>
    </defs>
    <g transform="translate(140.303125 20.8)scale(0.12 -0.12)">
     <use xlink:href="#DejaVuSans-65"/>
     <use x="68.408203" xlink:href="#DejaVuSans-110"/>
     <use x="131.787109" xlink:href="#DejaVuSans-110"/>
     <use x="195.166016" xlink:href="#DejaVuSans-111"/>
     <use x="256.347656" xlink:href="#DejaVuSans-116"/>
     <use x="295.556641" xlink:href="#DejaVuSans-97"/>
     <use x="356.835938" xlink:href="#DejaVuSans-116"/>
     <use x="396.044922" xlink:href="#DejaVuSans-105"/>
     <use x="423.828125" xlink:href="#DejaVuSans-111"/>
     <use x="485.009766" xlink:href="#DejaVuSans-110"/>
     <use x="548.388672" xlink:href="#DejaVuSans-115"/>
     <use x="600.488281" xlink:href="#DejaVuSans-32"/>
     <use x="632.275391" xlink:href="#DejaVuSans-112"/>
     <use x="695.751953" xlink:href="#DejaVuSans-101"/>
     <use x="757.275391" xlink:href="#DejaVuSans-114"/>
     <use x="798.388672" xlink:href="#DejaVuSans-32"/>
     <use x="830.175781" xlink:href="#DejaVuSans-112"/>
     <use x="893.652344" xlink:href="#DejaVuSans-114"/>
     <use x="934.734375" xlink:href="#DejaVuSans-111"/>
     <use x="995.916016" xlink:href="#DejaVuSans-116"/>
     <use x="1035.125" xlink:href="#DejaVuSans-101"/>
     <use x="1096.648438" xlink:href="#DejaVuSans-105"/>
     <use x="1124.431641" xlink:href="#DejaVuSans-110"/>
     <use x="1187.810547" xlink:href="#DejaVuSans-47"/>
     <use x="1221.501953" xlink:href="#DejaVuSans-99"/>
     <use x="1276.482422" xlink:href="#DejaVuSans-111"/>
     <use x="1337.664062" xlink:href="#DejaVuSans-109"/>
     <use x="1435.076172" xlink:href="#DejaVuSans-112"/>
     <use x="1498.552734" xlink:href="#DejaVuSans-108"/>
     <use x="1526.335938" xlink:href="#DejaVuSans-101"/>
     <use x="1587.84375" xlink:href="#DejaVuSans-120"/>
    </g>
   </g>
  </g>
 </g>
 <defs>
  <clipPath id="pb3d3e7d6aa">
   <rect height="219.4" width="364.15" x="57.05" y="26.8"/>
  </clipPath>
 </defs>
</svg>
